<svg width="554" height="336" viewBox="0 0 554 336" fill="none" xmlns="http://www.w3.org/2000/svg">
<g clip-path="url(#clip0_87_87)">
<path d="M254.48 0C245.17 3.03 234.93 -0.21 226 4.37C222.07 6.38 217.65 11.14 215.9 15.19C215.28 16.63 214.07 20 214.37 21.44C214.54 22.26 220.25 29.97 220.82 30.1C222.38 29.02 223.19 26.62 224.42 24.96C225.15 23.98 230.42 17.53 231.46 18.41L226.01 26.88C224.12 29.04 221.33 32.92 225.18 34.72C228.48 25.78 235.42 16.18 244.86 13.39L238.58 19.24C240.74 19.6 243.32 18.29 245.25 18.15C245.76 18.11 246.04 18.32 246.12 18.82C242.73 21.06 239.41 21.96 235.35 22.3L231.48 27.82C234.11 28.43 236.8 27.01 239.31 26.44C239.93 26.3 240.43 26.1 240.27 26.98C236.45 31.58 227.64 28.54 227.75 35.94C230.65 37.01 233.54 36.49 236.5 35.98C235.5 38.56 231.82 39.12 229.39 38.91C228.94 39.31 233.92 44.15 233.62 45.55C239.8 45.83 240.76 40.59 243.64 36.73C247.45 31.62 249.97 33.13 251.1 25.27C252.01 18.97 251.82 12.43 252.87 6.13C253.21 4.1 253.91 1.99 254.49 0.02L254.48 0ZM186.66 8.78C185.05 7.59 176.03 17.23 174.76 18.84C170.41 24.41 163.98 34.22 163.28 41.24C162.62 47.82 163.6 61.25 170.76 63.98C171.07 63.77 171.46 56.21 172.86 57.71L175.38 81.55L176.95 80.46C173.54 57.46 177.13 34.74 184.59 12.96C185.33 12.87 185.04 14.39 184.97 14.8C183.72 22.11 181.36 29.33 180.82 36.8C182.85 34.44 183.71 31.05 185.72 28.55C185.98 28.22 186.01 27.36 186.68 28.24C185.36 31.96 184.13 35.71 182.81 39.43C181.49 43.15 179.44 46.03 179.56 50.19C180.42 50.37 180.53 49.77 180.9 49.23C182.66 46.6 184.2 43.63 186.27 41.21C186.59 40.83 186.95 40.5 187.31 40.16C187.63 40.1 187.56 40.55 187.52 40.79C187.23 42.46 184.92 46.78 184.05 48.61C182.31 52.3 179.43 55.92 179.57 60.23L189.61 47.26C190.13 47.95 187.29 52.85 186.76 53.82C183.98 58.92 179.22 63.67 180 69.85C185.38 65.34 191.42 58.54 194.13 51.97C197 45.02 199.66 34.85 197.46 27.51C195.36 20.51 188.19 16.15 186.69 8.78H186.66ZM356.6 68.59C373.55 67.65 381.63 54.88 379.57 38.74C378.55 30.75 375.33 23.32 372.5 15.9L369.75 20.46C363.61 28.15 354.31 30.28 348.73 38.77C343.98 46 342.28 58.4 347.6 65.66C355.01 58.18 360.71 49.09 364.63 39.19C365.39 37.28 365.86 35.14 366.6 33.19C366.83 32.58 366.2 31.97 367.47 32.2C366.5 45.56 358.31 58.33 349.49 67.97C340.11 78.21 328.03 87.16 315.58 93.27C315.5 94.06 316.46 93.61 316.92 93.56C325.47 92.78 326.87 89.14 333.02 84.96C334.55 83.92 336.63 83.49 338.15 82.56C340.4 81.19 344.32 77.63 346.35 75.7C354.84 67.61 360.01 58.05 365.18 47.66C365.27 52.77 362.19 59.01 359.69 63.51C359.34 64.14 356.15 68.17 356.6 68.57V68.59ZM219.32 79.47V61.07C219.95 61.04 220.05 62.55 220.11 63C220.49 65.9 220.85 69.68 220.99 72.58C221.16 76.13 220.72 79.77 220.99 83.24C227.11 81.61 231.3 76.54 232.6 70.38C234.05 63.5 234.15 55.24 231.53 48.66C228.53 41.13 221.57 36.44 216.83 30.21C214.54 27.2 212.26 23.64 210.94 20.09C210.01 20.38 210.2 22.14 209.89 23.01C207.48 29.68 203.03 35.42 200.29 41.86C196.39 51.01 194.58 64.3 202.92 71.51C206.72 74.8 207.64 73.53 211.81 74.66C212.82 74.93 213.33 75.66 214.3 75.73L214.74 60.45C214.16 53.44 213.61 46.45 212.66 39.51C212.55 38.68 212.75 38.91 213.46 38.92C215.92 48.01 217.05 57.32 217.67 66.72C218.73 70.44 214.96 77.97 219.32 79.5V79.47ZM104.47 44.93C99.17 40.63 91.88 38.59 86.26 34.47C82.2 31.49 78.41 27.04 77.01 22.17C76.88 22.03 76.5 22.42 76.39 22.59C74.15 25.99 70.26 40.73 69.91 44.97C68.74 58.89 78.57 74.14 91.89 78.49L93.76 75.71C91.05 75.69 87.83 73.91 85.67 72.29C84.85 71.67 80.5 67.83 81.21 66.92C85.56 70.73 90.44 73.66 96.49 73.19C97.11 73.14 97.7 73.52 97.53 72.57C91.71 65.29 87.19 56.46 85.4 47.26L91.34 58.68C93.38 61.63 95.26 64.76 97.55 67.53C99.04 69.34 100.47 72.16 102.98 70.47C93.8 59.63 85.7 46.73 82.9 32.62L90.21 48.1C94.28 54.64 98.84 62.01 104.43 67.34C107.07 69.85 108.05 69.95 111.77 70.26C114.25 61.9 111.32 50.47 104.49 44.92L104.47 44.93ZM294.24 29.7C290.94 28.91 287.62 27.93 284.28 27.31C272.44 25.12 263.97 24.34 253.68 31.62C244.21 38.31 237.41 49.6 240.67 61.49C241.25 62.01 243.39 59.33 243.43 58.77C243.47 58.21 242.83 57.38 242.79 56.64C242.51 51.17 243.84 46.24 247.19 41.86C247.87 40.97 249.79 38.71 250.71 39.1C246.99 43.56 244.76 49.83 246.11 55.62C246.83 55.81 246.95 55.32 247.37 55C251.83 51.57 254.83 48.38 260.06 45.51C262.48 44.19 267.29 41.72 269.81 41.02C270.6 40.8 270.42 41.21 270.39 41.81C251.78 50.91 238.45 68.3 231.05 87.41C231.97 86.88 232.84 86.33 233.5 85.47C235.19 83.24 236.92 78.57 238.51 75.84C245.12 64.44 252.74 55.74 263.56 48.17C269.89 43.74 277.17 39.31 284.62 37.22C283.67 38.26 281.97 39.11 280.72 39.8C269.83 45.76 259.88 52.74 252 62.65C251.43 63.37 247.34 68.6 247.79 69.01C251.8 69.55 255.46 70.44 259.51 69.22C261.92 64.7 264.64 60.94 269.19 58.4C270.92 57.43 276.29 55.79 277.07 54.98C278.08 53.95 280.01 47.37 280.91 45.43C284.42 37.8 286.97 35.27 293.7 30.62C294.07 30.37 294.47 30.69 294.25 29.69L294.24 29.7ZM415.02 35.72C412.53 33.48 409.29 30.82 406.54 28.92C406.05 28.58 404.5 27.25 404.09 28C403.58 28.92 402.96 33.1 402.41 34.69C397.34 49.35 389.17 55.17 394.39 72.86C395.39 76.25 397.66 81.32 400.96 82.81C402.15 79.3 404.57 76.38 404.33 72.55C404.25 71.23 403.68 68.61 403.26 67.35C402.51 65.11 400.95 63.26 400.13 61.07C403.41 61.58 405.43 65.53 405.57 68.59L406 64.6C405.95 62.74 405.2 60.72 404.51 58.98C403.57 56.61 401.99 54.59 400.96 52.28L404.32 53.73L407.23 57.72C407.57 54.96 406.92 52.25 406.8 49.58C406.78 49.12 406.52 47.6 407.23 47.68C413.53 72.01 401.61 97.71 379.98 109.74C379.32 110.11 376.86 110.64 377.15 111.42C377.45 112.24 379.03 114.32 380.05 114.03C381.94 113.49 388.35 107.46 390.91 106.02C395.9 103.2 402.55 103.38 406.96 100.31C409.28 98.7 410.64 96.27 412.47 94.21C414.08 94.6 415.04 96.32 416.69 96.59C419.41 97.04 423.85 96.01 427.13 96.2C434.35 96.62 442.37 99.19 447.85 103.94C447.59 104.48 446.71 103.98 446.3 103.81C443.86 102.84 441.7 101.68 439.07 101C432.4 99.28 425.37 99.16 418.56 99.96C419.91 104.21 421.08 108.53 421.05 113.06C425.41 115.31 431.41 116.39 436.31 115.82C444.15 114.9 451.31 106.45 460.41 109.58C459.82 93.34 437.94 79.68 422.98 84.51C420.04 85.46 417.01 87.56 415.63 90.34C420.04 90.86 425.76 90.77 429.02 94.1C424.12 92.98 418.79 92.44 413.75 92.86C411.76 93.02 405.78 94.16 404.09 94.92C402.59 95.6 401.9 97.39 400.14 97.45C399.66 96.95 404.61 89.64 405.23 88.53C408.65 82.44 412.32 75.3 413.49 68.34C413.71 67 412.97 65 414.37 64.41C415.37 70.32 414.75 76.87 411.86 82.19C412.4 82.44 414.38 81.09 415.05 80.57C423.16 74.33 426.48 63.75 425.68 53.73C425.11 46.62 420.11 40.29 415.03 35.72H415.02ZM165.74 75.28C164.07 52.8 145.88 32.14 121.8 38.9C124.39 40.77 125.55 41.94 126.9 44.88C129.08 49.63 130.28 55.17 132.87 59.83C134.82 63.33 136.79 64.14 139.39 66.7C144.34 71.59 150.2 76.65 152.78 83.23C155.98 81.36 159.13 81.62 162.51 81.03C162.92 80.96 163.92 80.85 163.59 80.18C160.17 70.04 151.51 63.43 144.82 55.63C146.54 55.87 148.38 57.36 149.81 58.38C154.27 61.57 158.19 65.73 161.97 69.65L165.75 75.28H165.74ZM273.31 91.18C274.84 91.18 277.3 93.06 278.54 93.1C281.78 93.2 289.75 87.48 292.1 85.07C300.77 76.22 301.93 67.79 300.46 55.88C299.96 51.85 298.87 47.86 298 43.91L293.67 49.62C282.94 60.07 262.09 56.86 259.91 76.74C259.72 78.49 259.12 86.07 261.98 85.11C262.75 84.85 267.31 81.31 268.29 80.51C274.6 75.4 280.6 68.5 285.12 61.78C287.11 58.81 288.75 55.56 290.88 52.69C288.44 60.05 283.69 67.42 278.87 73.49C274.95 78.44 270.39 83 265.35 86.78C264.96 87.7 266.78 87.79 267.41 87.61C267.8 87.5 272.79 83.11 273.51 82.4C278.56 77.43 282.73 71.65 286.48 65.65C286.98 66.28 286.31 67.5 286.05 68.15C283.79 73.8 280 79.02 276.19 83.71L272.04 87.81C275.85 88.57 279.16 88.43 282.79 87.06C284.59 86.38 286.49 84.56 288.36 84.68C285.38 87.56 281.71 89.8 277.58 90.64L273.3 91.16L273.31 91.18ZM328.14 53.33C327.88 50.99 328.14 47.84 328.14 45.38C328.14 45.34 329.17 44.45 327.93 44.75C327.27 44.91 326.12 45.65 325.43 46.02C316.3 50.88 298.61 64.46 305.04 76.43C305.64 77.54 309.28 82.01 310.55 81.13L318.94 58.15C318.96 72.61 314.92 85.23 303 93.87C294.11 100.32 284.19 102.99 274.77 107.91C274.38 108.11 273.77 108.16 273.74 108.75L279.28 109.93C283.75 107.22 293.52 106.55 297.4 104.17C298.94 103.23 301.18 100.07 302.62 98.72C300.4 99.02 298.2 100.3 296.03 100.71C295.6 100.79 294.57 101.14 294.67 100.39C307.67 96.02 317.07 83.96 319.78 70.69C320.51 70.59 320.17 71.64 320.19 72.14C320.33 75.49 319.52 77.94 318.94 81.14C327.24 80.12 332.21 74.85 331.51 66.28C331.16 61.99 328.6 57.38 328.15 53.33H328.14ZM140.21 110.42V103.52C140.21 101.63 142.81 95.59 143.9 93.82C145.32 91.51 147.4 89.75 149.02 87.61C146.36 74.52 134.46 66.99 126.18 57.74C125.87 57.39 125.59 56.95 125.56 56.47C125.04 56.35 125.03 56.91 124.93 57.29C124.43 59.2 124.3 60.62 123.55 62.61C122.15 66.31 119.45 69.31 118.04 73C118.06 74.07 119.66 74.51 120.35 75.27C121.76 76.83 122.99 78.81 124.48 80.34L128.07 86.57C128.12 81.69 126.46 76.78 127.66 71.93C127.77 71.82 128.2 72.16 128.29 72.34C129.39 74.57 130.07 82.27 130.78 85.33C132.39 92.3 135.21 102.68 138.59 108.89C138.96 109.58 139.21 110.57 140.21 110.41V110.42ZM101.43 112.79C106.85 115.31 111.67 117.02 117.33 113.7C117.82 113.41 119.95 111.84 120.16 111.51C120.64 110.72 120.42 109.83 120.78 109.2C123.45 104.57 126.39 102.27 127.13 96.31C128.05 88.98 122.41 79.07 116.33 75.11C104.79 67.6 92.18 76.42 91.66 89.1C90.04 89.52 91.46 87.53 90.41 87.43C87.46 93.06 89.94 100.41 95.43 103.33L94.57 103.98C91.92 102.71 89.39 101.22 88.31 98.3C87.54 98.2 87.97 99.17 88.08 99.58C89.44 104.67 93.82 108.37 99.2 108.34C98.27 110.02 95.97 108.66 94.6 109.38C96.05 111.05 98.95 110.97 100.59 111.78C101.16 112.06 101.29 112.72 101.44 112.79H101.43ZM201.74 74.45C193.64 72.07 186.54 78.36 182.49 84.7L184.57 85.74C184.37 84.44 188.3 81.95 188.76 82.4L186.24 86.81L189.5 90.56C185.21 93.83 189.31 102.53 193.07 104.65C193.99 105.17 194.75 105.17 195.57 105.5C197.72 106.36 194.19 106.85 192.83 106.56C189.69 105.9 183.89 98.39 183.08 95.39C182.81 94.4 183.04 93.39 182.7 92.42L181.44 92.02C179.72 92.56 182.12 97.26 182.68 98.3C189.66 111.19 204.3 114.22 214.98 103.58C224.81 93.79 220.18 75.16 204.92 77C203.66 77.15 200.04 78.46 199.41 79.47C198.94 80.22 200.41 82.93 199.01 83.22C198.35 83.36 196.89 80.81 195.47 80.48C194.57 80.27 193.5 80.93 192.53 80.71C191.95 80.21 194.79 77.47 195.88 78.2C196.3 77.81 194.31 76.38 195.68 76.11C196.43 75.96 197.63 76.45 197.59 77.32H198.13C198.55 76.55 202.39 75.34 201.73 74.44L201.74 74.45ZM75.76 82.4C79.94 82.64 83.63 84.91 86.85 87.38C89.54 85.38 87.03 83.52 85.17 81.99C82.56 79.85 78.4 77.53 75.03 77.07C65.35 75.75 51.08 82.88 42.82 87.75C42.58 87.89 41.96 87.82 42.29 88.46C42.46 88.8 47.34 92.49 48.23 93.31C53.21 97.87 57.46 102.88 63.77 105.9C70.08 108.92 81.71 111.17 88.59 108.37C90 107.8 88.59 107.47 88.16 106.62C87.42 105.18 85.98 100.83 85.1 99.94C84.33 99.17 78.88 96.5 77.54 95.9C70.63 92.84 62.84 90.74 55.27 90.34C55.21 89.35 55.14 89.6 55.89 89.51C66.3 88.2 76.17 91.17 85.4 95.78L86.24 93.09C81 89.85 75.05 87.47 69.09 85.74C69 84.99 70.03 85.34 70.5 85.38C75.38 85.82 79.94 87.69 84.58 89.09C82.53 85.7 78.71 84.72 75.79 82.41L75.76 82.4ZM385.25 91.43C374.48 80 359.8 74.62 344.89 81.99H348.85C353.19 82.45 357.59 84.7 360.14 88.29C361.01 89.52 361.76 92.33 362.48 93.06C363.11 93.71 365.56 94.48 366.62 95.2C368.02 96.15 373.67 100.66 374.19 101.86C374.41 102.37 374.11 102.63 373.57 102.48C372.32 102.12 363.64 96.18 362.89 97.05L362.22 103.77C366.76 104.54 370.72 106.06 374.49 108.7C380.41 106.53 385.25 102.08 389.91 97.88C390.19 97.57 390 97.37 389.9 97.07C389.46 95.77 386.38 92.63 385.25 91.44V91.43ZM194.83 289.86C192.63 290.12 189.61 289.86 187.3 289.86C187.23 289.86 186.57 288.97 186.26 289.65C186.86 290.33 187.63 290.81 188.38 291.29C192.63 294.01 203.96 301 208.34 301.88C210.21 302.25 212.38 302.43 214.29 302.41C214.49 303.6 214.04 303.11 213.32 303.3C212.27 303.59 211.2 303.75 210.11 303.66C209.45 304.21 212.28 306.07 212.77 306.27C213.67 306.63 221.47 307.72 222.88 307.84C225.66 308.06 228.65 307.69 231.45 307.85L225.18 310.35C231.75 312.01 238.53 312.12 245.27 312.45L242.34 314.11C244.28 314.39 246.19 314.89 248.12 315.24C267.4 318.75 287.04 320.13 306.59 319.14C308.12 319.06 309.66 319.2 311.19 319.14L334.84 316.21C334.94 315.48 333.89 315.82 333.38 315.8C325.82 315.49 319.72 316.89 312.44 317.47C301.22 318.37 288.93 316.69 277.83 314.84C250.51 310.29 223.2 301.55 204.88 279.83C202.7 277.25 198.88 270.88 196.71 269.17C194.9 267.75 191.81 267.59 189.61 267.69C189.42 266.59 189.79 266.95 190.51 266.74C191.72 266.39 193.15 266.57 194.21 265.82C181.2 252.8 176.2 234.6 180.11 216.59C182.49 205.64 188.21 193.37 196.93 186.14C197.27 187.75 196.28 190.01 195.66 191.57C194.62 194.21 190.73 200.6 190.43 202.66C190.16 204.51 194.11 201.39 194.62 202.86C190.99 204.93 187.47 208.73 186.67 212.9C186.86 213.11 190.7 210.44 190.01 212.27C189.32 214.1 185.79 217.59 185.22 219.2C184.75 220.51 184.26 224.92 184.15 226.5C184.1 227.16 184.09 227.22 184.78 227.12L186.67 225.87C185.5 230.05 183.29 234.25 185.63 238.41L187.09 237.58C187.32 239.96 186.39 241.96 186.78 244.38C187.1 246.4 188.92 251.44 189.71 253.58C190.14 254.75 190.64 256.58 191.7 257.24C191.28 249.36 190.5 241.94 191.29 234.03C194.23 204.58 213.32 178.21 240.39 166.4C250.23 162.11 267.1 158.13 277.6 160.74C278.02 160.84 278.86 160.86 278.76 161.45C265.84 160.28 252.5 163.22 241.06 169.23C244.16 179.53 260.55 186.63 270.5 185.19C284.22 183.21 287.23 164.73 300.94 163.75C297.87 160.01 283.31 149.02 279.08 149.39C274.85 149.76 272.46 152.6 267.17 149.82C266.2 149.31 264.9 147.48 264.35 147.4C260.27 146.78 250.76 152.05 247.6 154.77C246.8 155.46 242.8 159.59 242.55 160.21C242.3 160.83 242.74 161.3 242.78 161.86C238.41 162.39 235.87 165.81 232.31 167.51C226.35 170.34 219.34 170.33 213.05 168.76C208.76 174.53 211.86 182.85 206.37 188.22C207.35 183.9 208.35 179.97 208.04 175.47C206.97 160.09 190.49 150.18 189.21 134.68C190.39 134.44 189.88 135.02 190.18 135.58C191.54 138.11 192.82 140.72 194.31 143.18C199.11 151.1 205.53 158.47 208.46 167.31C215.21 164.22 216.97 155.51 216.4 148.7C214.94 131.36 201.34 128.4 190.38 119.17C188.29 117.41 186.88 114.93 185.03 112.93C180.6 123.75 173.7 138.75 177.37 150.48C180.37 160.08 190.45 169.22 200.93 168.97C201.52 168.37 198.98 163.74 198.49 162.84C191.66 150.26 181.55 142.77 183.4 126.57C183.46 126.08 183.59 124.28 184.18 124.22C184.6 130.04 185.55 135.77 188.01 141.1C191.17 147.96 196.79 153.5 200.68 159.81C208.39 172.3 209.46 186.82 196.53 196.17C195.98 195.9 196.5 195.03 196.66 194.63C198.87 188.9 203.97 184.75 203.46 177.96C203.4 177.22 203.57 176.6 202.81 176.11C193.5 181.5 186.82 188.67 183.47 199.02C182.44 202.19 182.03 205.55 181.05 208.73C180.06 211.93 172.46 233.99 173.31 235.08C173.9 234.9 175.18 234.07 174.99 235.29C174.77 236.66 173.45 238.59 172.98 239.98C172.74 240.69 171.63 244.14 171.63 244.49V253.06C170.9 252.95 170.9 252.23 170.68 251.71C164.96 238.03 178.92 209.13 180 193.03C180.75 181.88 176.45 166.36 171.51 156.35C163.66 140.43 149.83 117.61 163.69 100.61C164.41 99.72 170.46 93.9 171.21 94.54L165.18 101.69C159.56 108.94 160.23 118.14 161.36 126.76C161.72 127.45 163.69 126.13 164.22 125.83C168.36 123.43 173.02 119.39 173.68 114.37C174.72 106.61 169.16 100.91 175.21 93.31C177.4 90.56 180.17 90.11 183.34 88.9C180.21 86.53 176.35 84.66 172.48 83.86C156.02 80.47 138.56 96.81 143.18 113.56C144.16 117.13 146.29 119.54 148.18 122.57L148.6 120.9C150.32 122.86 150.77 126.14 151.87 128.71C153.21 131.82 156.76 136.52 157.1 139.4C157.4 141.93 154.78 139.51 154.05 138.67C152.82 137.26 152.43 135.41 151.52 134.18C150.34 132.58 148.44 130.98 147.18 129.22C139.93 119.1 133.51 108.04 130.6 95.8C129.33 96.55 129.91 98.78 129.67 100.09C129.47 101.2 128.47 102.3 128.68 103.33C129.18 105.68 133.22 113.34 134.57 115.88C136.09 118.76 139.9 123.77 140.83 126.35C141.09 127.06 141.15 127.67 141.06 128.42C138.38 129.16 138.36 126.55 136.98 125.48C132.96 122.37 123.07 121.32 118.04 121.31C117.85 120.24 118.2 120.56 118.88 120.29C121.67 119.18 125.13 119.18 128.09 119.22C126.94 117.62 123.96 113.63 121.95 113.46C121.12 113.39 118.17 115.94 116.78 116.5C111.56 118.6 105.56 117.64 100.74 114.98C100.05 114.6 99.55 113.63 98.91 113.44C96.47 112.71 88.98 118.67 86.53 120.15C84.72 121.24 82.63 121.96 80.91 122.9C80.43 123.16 80.2 122.88 80.38 123.83C90.05 127.65 96.55 139.5 107.78 139.76C113.43 139.89 120.89 136.44 125.17 132.84C125.79 132.32 129.31 128.97 128.93 128.45C121.76 125.39 114.23 124.63 106.67 123.3C106.15 123.21 104.64 123.22 104.66 122.6C112.02 121.79 120.16 122.26 127.24 124.5C138.92 128.19 157.32 144.37 164.26 154.43C175.7 171.01 179.23 194.56 168.9 212.52C168.09 211.98 168.28 211.51 168.31 210.7C168.43 207.47 170.06 203.48 170.31 200.13C170.7 195.01 169.11 191.24 167.44 186.59L171.21 188.88C170.78 186.13 169.96 183.71 168.89 181.16C168.18 179.46 165.54 175.44 165.34 174.25C165.29 173.95 165.26 173.53 165.55 173.62L169.32 176.54C168.75 169.89 164.75 163.25 160.91 157.76C155.18 149.56 148.57 143.9 139.82 139.1C137.46 137.8 131.28 134.46 128.94 134.03C127.73 133.81 125.23 136.83 125.58 137.22C128.2 138.27 138.7 142.01 140.03 143.9C140.44 144.49 140.42 144.82 139.62 144.74C138.37 144.6 132.98 142.44 132.7 142.66C134.46 144.21 135.25 147.51 136.52 149.08C137.29 150.03 144.55 153.95 146.48 155.44C160.61 166.41 166.27 182.23 164.93 199.95L166.4 198.7C167.31 198.53 167.04 199.11 167.02 199.73C166.88 203.71 162.47 211.63 160.97 215.86C155.18 232.21 155.56 249.8 163.72 265.36C167.35 272.27 173.58 275.01 180.83 276.92C180.93 277.65 179.88 277.31 179.37 277.33C176.82 277.43 174.9 277.06 172.46 276.5C172.27 277.22 172.76 277.34 173.08 277.76C179.07 285.48 187.8 289.05 197.57 288.64C197.45 289.18 195.2 289.85 194.85 289.89L194.83 289.86ZM357.85 89.09C358.55 88.31 354.49 85.74 353.79 85.42C348.98 83.26 342.21 84.04 338.61 88.05C337.05 89.79 337.11 92.05 335.68 93.69C334.7 91.25 335.98 88.13 337.57 86.18C338.11 85.51 338.92 85.57 339.02 84.91C335.67 85.46 332.43 87.63 331.07 90.76L332.32 90.34C334.33 95.56 334.26 101.34 334.02 106.88C333.93 108.83 332.62 112.4 333.76 113.8C337.82 118.77 350.75 118.91 353.25 112.1C351.94 112.25 350.16 111.81 348.94 112.18C348.32 112.37 347.65 113.41 346.85 113.85C344.42 115.19 342.09 114.72 340.71 112.3C341.64 111.2 342.28 112.93 343.83 112.94C344.97 112.95 346.28 112.35 346.97 111.46C346.07 110.59 344.6 110.36 344.89 108.74C349.23 111.01 353.76 110.82 357.24 107.07C365.73 97.89 353.02 80.8 342.59 89.92C342.1 87.73 344.99 85.91 346.96 85.51C351.29 84.62 354.79 86.18 357.86 89.09H357.85ZM277.91 94.53C268.9 93.44 261.13 86.05 252.05 85.02C236.53 83.27 223.11 93.88 220.99 109.16L227.93 104.15C226.52 99.35 232.94 93.06 237.52 93.69L237.73 94.52C236.08 95.11 234.74 96.46 233.53 97.66C232.89 98.29 229.36 102.43 229.78 102.89C232.66 101.52 235.67 99.5 238.98 99.75C229.52 104.89 221.6 112.85 214.28 120.66C213.48 121.52 207.98 127.31 208.02 127.79C208.05 128.1 209.63 129.1 210.1 128.65C223.88 109.16 246.15 94.16 271 96.2C271.49 96.2 270.98 96.76 270.8 96.84C269.12 97.58 264.93 97.87 262.75 98.42C247.07 102.37 232.13 110.15 220.99 121.93C233.75 128.94 248.94 125.28 259.29 115.88C265.4 110.33 269.24 103.32 274.71 97.6C275.4 96.88 276.96 96.04 277.64 95.4C278 95.06 278.02 95.1 277.91 94.53ZM331.49 104.36C331.85 100.94 331.22 96.97 331.49 93.48L330.64 93.03C324.86 96.74 317.71 95.69 311.41 97.67C304.44 99.87 298.76 106.36 295.42 112.65C293.56 116.16 291.23 121.23 292.79 125.07C303.34 121.74 309.09 112.33 317.14 105.51C317.44 105.26 317.9 104.43 318.51 104.99C318.89 105.34 314.99 111 314.5 111.64C311.11 116.13 305.8 121.41 301.31 124.81C300.04 125.77 293.11 129.89 292.98 130.37C292.84 130.9 292.74 132.01 293.6 131.75C294.3 131.54 296.46 130.44 297.32 130.03C301.37 128.1 305.11 125.67 308.68 122.98C308.7 127.1 303.63 129.34 300.93 131.76C304.27 132.09 306.82 132.34 310.15 131.57C320.83 129.08 330.37 114.85 331.49 104.37V104.36ZM488.03 131.75H495.35C495.81 131.75 496.8 132.21 495.97 132.79C493.97 134.18 489.79 134.48 487.42 134.24C486.65 134.16 486.09 133.51 485.31 133.47C482.82 133.32 483.86 135.99 485.73 136.34C489.44 137.05 496.95 134.37 500.29 132.51C514.72 124.44 512.39 109.67 516.7 96.2C516.88 95.63 517.13 95.74 516.27 95.76C514.65 95.8 512.85 96.5 511.25 96.6C503.39 97.11 496.37 96.19 488.54 98.58C478.04 101.79 468.22 111.37 469.25 123.12C470 131.62 474.34 127.86 479.37 124.97C485.21 121.62 491.22 117.01 496.41 112.72C498.99 110.58 501.75 107.49 504.33 105.58C504.9 105.16 505.21 104.8 506.02 104.98C499.07 115.77 488.48 123.42 477.57 129.86L480.18 131.25C485.1 129.45 490.8 124.27 495.55 122.74C495.87 122.64 497.67 122.11 497.23 123.16L494.72 125.68C498.37 125.54 501.85 123.29 505.18 121.7C505.93 122.47 500.92 125.85 500.29 126.22C498.09 127.49 496.09 128.3 493.57 128.71C492.92 128.81 492.23 128.33 491.67 128.46C491.22 128.56 488.44 131.06 488.03 131.74V131.75ZM413.94 97.46C413.3 97.3 413.27 97.56 412.93 97.9C411.68 99.15 410.65 100.87 409.13 102.05C404.09 105.96 397.16 105.58 391.63 109.24C388.9 111.05 383.81 116.59 382.79 119.65C381.91 122.3 384.91 127.71 385.83 130.37L388.16 133.38C394.9 128.89 400.61 123.04 404.75 116.07L408.09 109.59C404.76 131.35 382.65 142.78 362.99 146.7C361.83 146.93 353.23 147.79 353.26 148.29C353.91 149.37 354.7 151.68 356.01 151.85C357.62 152.05 362.24 150.72 364.36 150.59C376.32 149.85 390.44 154.49 400.36 161.03C407.07 165.45 413.9 171.9 416.04 179.86L409.76 172.75C409.08 172.64 409.37 173.31 409.35 173.78C409.27 175.62 409.69 177.23 408.62 178.9C408.35 179.32 408.65 179.64 407.68 179.43C407.34 174.49 405.73 168.42 401.4 165.63C402.09 168.3 403.75 171.06 401.61 173.57C401.21 173.58 400.28 168.66 399.93 167.73C397.67 161.69 393.04 159.87 387.41 157.68C386.15 157.8 387.24 162.96 387.46 163.88C388.57 168.44 392.02 174.06 395.11 177.57C404 187.68 417.52 187.48 427.35 196.17C430.89 179.08 432.94 164.59 416.6 154C410.05 149.76 403.77 148.43 395.96 149.74L404.33 155.38C405.9 157.31 409.07 159.2 409.14 161.87C400.26 153.59 388.56 150.41 377.12 147.23C378.14 145.79 380.2 146.63 382.02 146.07C383.61 145.58 387.71 142.68 389.22 141.55C393.59 138.28 397.21 134.2 400.77 130.09L399.88 133.39L393.44 142.22C402.98 144.27 410.92 136.44 414.73 128.57C419.64 118.45 419.97 107.16 413.94 97.46ZM66.96 120.88C63.02 109.41 49 105.14 37.88 106.25C28.52 107.18 24.44 116.54 17.12 121.06L11.3 124.23C22.15 127.87 30.31 136.73 41.52 139.83C42.69 140.15 46.53 141.05 47.5 140.98C48.62 140.9 49.55 136.54 50.14 135.24C50.91 133.56 51.94 132.06 52.97 130.54L58.58 125.91C54.42 125.42 49.97 124.56 45.81 124.24C40.39 123.82 34.91 124.04 29.49 123.82C28.98 123.8 27.93 124.14 28.03 123.41C39.86 121.09 51.59 121.68 63.39 123.86L66.95 122.58C61.62 121.68 56.33 120.56 50.89 120.43L47.7 119.65C54.15 119.52 60.61 119.62 66.95 120.9L66.96 120.88ZM128.07 110C128.27 109.44 126.88 105.91 126.41 106.24L125.15 108.32L128.08 110H128.07ZM385.25 134.11C380.35 128.19 380.48 119.55 375.43 113.57C372.73 110.38 366.74 106.81 362.55 106.33C359.81 106.02 359.64 107.71 357.86 109.38C357.15 110.05 355.52 110.72 355.16 111.28C354.76 111.9 354.7 113.12 354.18 114.06C352.65 116.81 350.05 117.03 347.81 118.78C354.18 119.55 361.2 122 366.32 125.91C366.86 126.33 370.47 129.59 369.99 130.07L362.46 125.89C362.02 126.4 365.02 130.44 365.3 131.21C366.33 134.08 361.81 129.27 361.45 128.78C360.62 127.68 359.46 124.75 359.01 124.32C358.07 123.42 353.93 122.97 352.62 122.13C351.89 124.33 355.12 126.97 355.76 128.61C355.96 129.12 355.66 129.43 355.14 129.23C352.75 128.3 349.92 123.73 349 121.36L343.62 120.87C343.5 122.53 343.93 124.15 344.44 125.7C344.56 126.07 346.7 129.4 345.1 128.81C342.81 127.97 340.48 123.33 341.12 120.87C340.07 120.89 334.64 120.66 334.4 121.55C334.04 127.41 337.3 132.84 342.25 135.85C354.74 143.43 372.31 133.85 385.9 134.67C386.06 134.05 385.45 134.34 385.25 134.1V134.11ZM201.9 121.03C200.3 123.48 204.56 125.23 205.09 124.89C205.82 124.42 212.73 109.85 212.19 109.17C211.1 110.27 208.75 110.69 207.82 111.7C206.53 113.1 203.22 119 201.89 121.03H201.9ZM267.03 147.22C275.03 151.91 289.01 140.93 290.01 133.18C291.21 123.92 281.44 112.22 272.21 111.31C265.84 110.68 266.72 113.01 263.01 116.65C260.68 118.93 257.47 121.7 254.8 123.52C252.68 124.96 250.35 124.77 249.91 127.82C248.46 137.85 256.7 147.09 266.95 144.02C271.2 142.74 269.7 142.02 270.38 138.45C271.71 138.33 271.75 140 272.46 140.76C273.72 142.11 275.38 141.8 277.07 141.8C276.37 143.39 275.55 144 273.74 143.9L273.72 145.97C272.29 146.33 271.99 144.56 270.68 144.77C270.51 144.8 267.96 146.08 267.57 146.3C267.11 146.56 266.85 146.25 267.03 147.22ZM337.35 117.96C334.09 116.57 330.54 113.97 329.4 119.21L337.35 117.96ZM464.57 126.34C458.58 125.6 453.42 120.74 447.86 119.4C437.3 116.86 423.14 125.27 416.66 133.42L411.85 140.12C412.01 140.26 415.59 139.68 416.02 139.48C417.34 138.88 421.49 134.65 423.05 133.44C424.37 132.42 428.38 129.21 429.64 128.83C429.86 128.76 430.32 128.71 430.26 129.03L420.64 138.65C422.28 139.02 424.52 137.41 426.05 136.52C427.75 135.53 435.71 129.27 436.34 129.24C436.84 129.22 436.91 129.73 436.55 130.28C435.17 132.39 431.64 134.68 429.72 136.42C429.39 136.72 428.49 137.09 429.23 137.61C430.5 137.14 431.91 137.03 433.16 136.51C437.48 134.71 442.92 130.18 447.23 128.82C447.44 128.75 447.91 128.71 447.85 129.02C446.55 130.61 444.51 131.55 442.98 132.74C442.91 132.79 440.82 134.55 442.2 134.26L461.24 127.99C461.14 128.64 460.46 128.78 459.98 129.03C451.9 133.2 442.91 137.26 434.03 139.29C433.7 140.7 435.98 140 437.07 140.22C440.73 140.98 444.25 142.4 447.82 143.46C450.26 135.09 456.59 130.32 464.53 127.53L464.56 126.35L464.57 126.34ZM89.57 133.01C87.19 130.62 81.32 125.19 78.03 124.67C71.77 123.7 61.68 126.44 56.91 130.71C52.14 134.98 51.43 140.9 49.16 146.39C48.39 148.26 47.17 149.95 46.45 151.83C57.47 154.39 65.66 161.08 77.62 160.19C83.18 159.77 96.76 155.18 100.31 150.87C101.74 149.13 102.3 145.12 104.63 143.47C94.82 142.6 84.9 143.82 75.18 145.2C71.46 145.73 67.8 146.94 64.03 146.81L84.02 141.91C89.2 141.31 94.36 140.28 99.6 140.54L95.69 137.91C93.03 138.87 91.36 136.63 89.23 135.63C86.84 134.5 84.13 133.34 81.6 132.59C81.88 131.85 84.1 132.11 84.75 132.16C86.37 132.28 87.96 132.76 89.55 133.01H89.57ZM512.3 132.17H505.81C505.51 132.17 501.74 135.41 500.86 135.59L494.3 138.45H504.97C507.68 138.45 515.67 141 518.44 142.14C534.53 148.77 540.21 161.89 543.59 178.09C543.61 178.56 543.86 178.8 544.31 178.6C544.71 178.43 547.59 175.39 548.05 174.8C559.96 159.64 548.96 138.77 533.59 131.18C526.03 127.44 518.38 126.88 510.62 130.51L512.29 132.18L512.3 132.17ZM219.32 147.02C219.55 149.06 219.15 151.42 219.32 153.5C220.06 153.67 220.16 153.24 220.56 152.84C224.04 149.38 233.02 143.46 237.94 143.46H245.26L238.58 145.36C227.72 148.95 219.86 155.96 214.71 166.04C220.81 167.6 228.27 167.21 233.32 163.11C238.25 159.11 239.36 151.5 243.78 147.63C246.43 145.31 250.02 144.8 253.21 143.67C248.74 140.24 247.94 135.38 246.51 130.29C236.29 126.2 223.63 128.81 215.74 136.34C216.89 139.58 218.93 143.6 219.31 147.01L219.32 147.02ZM467.94 166.89C486.85 166.14 494.19 140.85 476.04 132.24C472.29 130.46 467.27 129.8 463.25 131.04C458 132.66 456.57 140.4 457.06 145.14C456.45 145.2 456.38 144.15 456.22 143.69C455.9 142.75 455.41 141.27 455.37 140.32C455.3 138.52 456.29 136.89 456.01 135.11C449.6 141.21 447.4 150.93 451.31 159.04C454.39 165.42 462.35 167.75 468.64 164.46C470.06 163.72 472.38 161.75 472.12 160C471.97 158.99 469.75 160.15 468.98 160.2C465.33 160.45 463.2 159.96 460.04 158.25C459.37 157.89 458.48 157.85 458.73 156.86C463.18 158.44 471.18 159.9 472.96 154.15C468.64 153.98 462.96 152.86 461.66 148.08C462.74 148.03 462.75 149.07 463.67 149.62C468.66 152.61 475.81 152.19 480.07 148.08C480.21 149.6 479.43 150.99 478.41 152.05C480.81 154.14 482.63 150.7 484.26 149.33C484.12 150.69 483.17 152.4 482.19 153.32C481.36 154.11 480.39 154.27 479.88 154.78C479.27 155.38 479.17 156.66 478.37 157.45C477.67 158.14 475.91 158.56 475.64 158.93C475.39 159.28 476.66 163.79 474.64 164.38C474.33 163.96 475.2 160.62 473.8 160.2C473.8 161.84 472.94 163.01 471.97 164.23L467.94 166.89ZM348.41 146.22C337.7 135.02 324.42 134.48 311.12 141.7C305.6 139.73 299.04 136.65 293.13 136.38C291.92 136.32 290.79 138.47 290.48 139.51C290.24 140.3 290.62 140.06 291.09 140.12C309.92 142.57 327.77 151.29 341.95 163.76C341.9 164.18 341.3 163.98 341 163.87C338.48 162.96 334.39 159.86 331.77 158.46C324.67 154.66 317.31 151.23 309.73 148.49C306.91 162.53 317.72 168.98 330.03 170.24C338.26 171.08 348.11 168.92 354.72 174.84C360.82 166.08 354.98 153.11 348.41 146.23V146.22ZM42.51 146.15C37.07 141.5 27.96 137.96 20.77 138.5C13.67 139.03 7.07 143.06 0 143.89C4.99 153 4.35 162.92 12.97 170.03C15.21 171.88 22.59 175.86 25.36 175.65C26.55 175.56 27.04 173.13 27.69 172.19C29.21 170 31.15 168.29 33.06 166.48C30.04 167.31 26.14 168.79 23.43 166.48C25.27 166.82 33.07 162.75 33.89 163.55C34.2 163.99 32.84 166.57 34.09 166.05C35.03 165.66 36.36 163.97 37.67 163.77L47.7 160.62C38.6 160.62 29.73 158.56 21.47 154.83C19.37 153.88 16.51 152.71 15.06 151C26.67 155.48 38.88 158.56 51.47 157.69C51.63 156.75 50.87 156.56 50.22 156.23C47.36 154.78 43.66 154.4 40.59 153.51C40.44 152.47 41.7 152.34 42.48 151.43C43.26 150.52 44.09 149.34 44.67 148.28C44.65 148.08 42.9 146.51 42.5 146.16L42.51 146.15ZM105.62 165.91C118.59 180.55 143.67 163.59 133.02 146.26C130.8 142.65 125.53 138.9 121.16 138.95C120.31 138.95 111.07 141.11 109.97 141.49C100.43 144.81 99.28 158.76 105.61 165.91H105.62ZM499.7 141.84C498.41 141.8 497.06 141.7 495.77 141.8C495.21 141.84 493.24 142 493.05 142.63C496.02 143.53 498.56 145.39 501 147.24L499.71 141.85L499.7 141.84ZM536.58 165.21C531.63 150.67 518.02 142.76 503.1 142.21C504.69 150.02 509.27 158.37 517.33 160.82C521.57 162.11 526.12 161.75 530.39 162.83C532.62 163.39 534.45 164.49 536.58 165.21ZM47.29 143.47L43.53 143.05L45.86 145.54C46.64 145.75 47.57 143.7 47.3 143.46L47.29 143.47ZM410.17 143.47C405.37 142.41 400.53 145 396.15 145.17C394.08 145.25 391.38 143.88 390.35 143.99C389.64 144.07 386.69 146.2 385.9 146.81C387.71 146.83 389.82 148.06 391.55 148.07C394.56 148.09 398.56 146.01 401.97 146.77L410.18 143.47H410.17ZM448.26 157.69C447.01 154.02 446.88 150.53 446.95 146.67C446.53 145.42 437.59 144.02 435.91 143.9C426.21 143.21 416.7 145.1 407.25 146.83L416.76 150.92C427.55 151.89 438.23 153.52 448.27 157.7L448.26 157.69ZM513.56 175.25L505.41 158.93C502.52 153.68 498.82 149.5 493.6 146.47C492.65 145.92 489.99 144.43 489.08 144.29C487.81 144.1 488.85 145.85 488.87 146.6C488.96 149.9 488.29 153.22 486.9 156.23L491.8 160.19L485.92 158.28C483.36 162.65 478.87 166.62 473.8 167.73C473.63 168.36 473.8 168.27 474.06 168.56C486.04 182.5 498.25 173.21 513.56 175.25ZM285.87 148.49C286.8 149.38 290.99 152.39 291.92 152.48C293.33 152.61 295.47 151.86 296.95 151.82C299.68 151.74 302.67 151.66 305.31 152.21C306.33 151.97 306.25 148.94 305.34 148.49H285.88H285.87ZM477.98 154.36L475.05 153.51V156.85C476.71 156.85 477.68 155.89 477.98 154.36ZM451.38 163.38C450.61 162.49 449.04 159.27 448.4 159.03L422.32 154.35C421.74 155.06 424.36 156.52 424.85 157.05C425.8 158.09 427.15 159.89 427.93 161.08C429.99 164.23 429.4 166.16 433.3 167.42C442.39 170.35 451.23 168.12 460.4 167.73L455.23 166C453.82 165.32 452.41 164.58 451.38 163.38ZM57.76 159.78L50.23 160.61L54.18 161.43L57.75 159.78H57.76ZM61.94 161.04C61.15 160.83 60.72 160.57 59.85 160.79C58.48 161.13 54.67 163.1 53.29 163.89C44.77 168.81 41.45 177.6 40.17 186.97C39.62 187.64 39.41 186.92 39.33 186.35C38.7 181.45 39.91 176.61 41 171.91C40.65 171.52 37.93 174.37 38.5 172.54C38.84 171.45 41.68 167.87 42.67 167.09C44.27 165.83 46.41 165.58 47.7 163.97C18.8 165.92 21.68 206.53 48.96 209.14L47.28 205.58C48.85 205.21 47.6 203.77 47.66 202.24C48.08 191.84 53.81 192.17 58.34 185.69C61.92 180.57 60.16 172.84 57.28 167.76C55.83 166.76 49.1 174.89 48.19 176.38C44.14 182.96 44.64 188.99 44.35 196.39C44.33 196.9 44.67 197.95 43.94 197.85C39.64 186.05 43.45 175.04 52.72 167.1L61.93 161.05L61.94 161.04ZM89.15 198.26C90.16 187.41 101.95 185.81 99.08 173.5C98.15 169.52 95.35 164.99 92.3 162.27C84.97 168.89 83.14 179.85 85.52 189.15L89.16 198.26H89.15ZM71.15 163.55C66.31 161.69 63.68 163.85 59.43 165.64C60.79 168.64 62.38 171.49 62.78 174.83L66.36 168.59L71.14 163.54L71.15 163.55ZM86.01 209.55C88.31 209.81 90.99 209.36 93.33 209.55C84.42 197.55 76.81 182.75 83.63 167.85C84.25 166.5 85.81 164.76 86.21 163.74C86.46 163.1 86.09 163.09 85.58 163.1C83.9 163.13 81.85 163.79 80.14 163.95C76.46 164.3 75.53 163.1 72.2 165.64C56.26 177.8 65.61 207.26 86 209.55H86.01ZM202.09 171.55C197.95 171.68 194.89 171.55 191.11 169.76C190.48 169.46 187.79 167.42 187.5 167.72C187.76 172.57 183.36 178.3 182.92 182.61C182.65 185.22 183.88 189.11 183.32 191.98C185.91 188.53 187.93 184.73 191 181.67C194.24 178.44 198.43 175.55 202.52 173.51L202.09 171.54V171.55ZM169.93 282.75L164.15 274.52C159.95 267.23 156.34 259.41 155.28 250.96L154.43 254.5C153.79 270.08 155.14 287.32 167 298.65C166.7 297.91 168.03 293.65 169.09 294.47C170.15 298.44 170.18 301.64 173.5 304.5C174 304.93 177.29 307.28 177.68 307.43C178.72 307.84 178.06 304.66 179.72 304.95C181.39 306.38 181.51 308.34 183.12 309.94C184.27 311.08 190.5 314.52 192.03 314.89C193.38 315.22 193.84 313.94 194.76 314.17C195.83 314.43 195.96 316.36 197.01 316.98C199.64 318.54 207.34 320.73 210.63 321.77C224.22 326.05 244.38 331.13 258.46 332.11C266.75 332.69 275.98 329.35 282.94 335.46C283.74 334.64 279.28 331.79 278.44 331.81C264.95 329.25 251.51 328.17 238.26 324.28C216.29 317.83 198.99 302.97 179.44 291.88C172.92 288.18 161.52 287 161.57 277.32C162.04 276.79 164.4 279.62 164.94 280.01C166.42 281.06 168.32 281.9 169.93 282.76V282.75ZM151.09 278.15C149.6 271.56 148.83 264.76 150.25 258.08C142.52 261 140.29 269.59 136.86 276.28C137.86 276.66 138.77 275.94 139.95 276.07C140.39 276.12 142.5 276.78 142.25 277.48C141.8 278.72 139.58 280.53 138.68 281.87C127.28 298.68 131.33 325.64 108.79 332.73L100.86 334.62C104.38 335.31 108.49 336.72 112.05 335.56C113.35 335.13 114.36 333.56 115.93 333.79L115.52 335.88C119.79 335.75 123.83 334.2 125.57 330.03L126.4 330.24L126.6 332.54C131.11 330.26 132.51 328.03 132.67 322.92C134.43 322.56 134.11 326.69 134.97 326.67C140.08 323.25 140.37 318.32 138.11 312.88C140.43 313.4 141.08 316.13 142.08 317.9C145.11 313.29 145.57 308.49 142.47 303.71C142.15 303.21 140.63 301.97 140.62 301.8C140.55 300.61 143.61 302.39 143.95 302.65C144.98 303.47 145.43 305.04 146.47 305.77C146.85 300.55 145.66 295.46 145.22 290.3C148.09 293.05 148.8 297.44 149.41 301.17L153.17 296.99L147.74 316.65C152.23 311.6 155.05 304.45 161.55 301.58C159.47 297.71 156.16 294.27 154.85 289.88L153.19 290.71C152.04 285.83 151.54 280.82 147.75 277.11C148.62 276.15 150.64 278.61 151.09 278.16V278.15ZM131.84 281.92C124.56 284.37 120.99 292.08 116.34 297.59C108.31 307.11 96.58 313.9 84.22 316.1C76.91 317.4 69.78 314.62 62.5 316.57L59.43 317.89C68.85 316.39 78.02 320.64 87.47 319.98L86.22 317.06C89.38 318.4 92.84 319.31 96.26 318.73C95.64 317.74 93.71 317.32 93.75 315.81C96.05 316.04 102.22 317.83 104.05 317.11C104.5 316.93 104.77 317.31 104.63 316.44L102.96 313.72C105.25 314.4 110.18 316.01 112.17 314.35C113.07 313.6 111.68 313.56 111.32 312.99C111.1 312.65 110.28 310.99 110.49 310.79C113.3 310.99 117.1 312.95 119.43 310.82L119.69 309.96C118 309.68 117.42 307.93 116.76 306.61C119.76 306.37 121.44 309.53 124.29 307.43C124.33 306.09 122.86 306.48 122.39 304.95C122.13 304.12 122.17 303.27 122.21 302.42L124.6 304.04C125.9 304.75 126.84 300.82 126.72 300.17C126.56 299.35 124.37 297.96 125.56 296.15L127.64 297.4L131.83 281.93L131.84 281.92Z" fill="#FF5B00"/>
<path d="M194.83 289.86C195.18 289.82 197.42 289.15 197.55 288.61C187.79 289.03 179.05 285.45 173.06 277.73C172.73 277.31 172.25 277.19 172.44 276.47C174.88 277.03 176.8 277.41 179.35 277.3C179.86 277.28 180.91 277.62 180.81 276.89C173.56 274.98 167.33 272.24 163.7 265.33C155.54 249.78 155.16 232.18 160.95 215.83C162.45 211.6 166.86 203.68 167 199.7C167.02 199.07 167.29 198.49 166.38 198.67L164.91 199.92C166.25 182.2 160.59 166.38 146.46 155.41C144.53 153.91 137.27 150 136.5 149.05C135.23 147.48 134.44 144.17 132.68 142.63C132.96 142.41 138.35 144.57 139.6 144.71C140.4 144.8 140.43 144.46 140.01 143.87C138.67 141.97 128.18 138.24 125.56 137.19C125.2 136.8 127.71 133.78 128.92 134C131.26 134.42 137.44 137.77 139.8 139.07C148.55 143.87 155.17 149.53 160.89 157.73C164.73 163.23 168.73 169.86 169.3 176.51L165.53 173.59C165.24 173.49 165.27 173.91 165.32 174.22C165.51 175.41 168.16 179.44 168.87 181.13C169.94 183.68 170.76 186.1 171.19 188.85L167.42 186.56C169.09 191.21 170.68 194.98 170.29 200.1C170.04 203.45 168.41 207.44 168.29 210.67C168.26 211.47 168.07 211.95 168.88 212.49C179.2 194.52 175.67 170.98 164.24 154.4C157.3 144.34 138.9 128.16 127.22 124.47C120.14 122.24 111.99 121.76 104.64 122.57C104.62 123.2 106.13 123.18 106.65 123.27C114.22 124.6 121.74 125.36 128.91 128.42C129.29 128.95 125.77 132.29 125.15 132.81C120.87 136.41 113.41 139.86 107.76 139.73C96.53 139.47 90.03 127.62 80.36 123.8C80.18 122.85 80.41 123.14 80.89 122.87C82.6 121.93 84.69 121.21 86.51 120.12C88.96 118.64 96.45 112.69 98.89 113.41C99.53 113.6 100.03 114.56 100.72 114.95C105.54 117.61 111.54 118.57 116.76 116.47C118.15 115.91 121.1 113.36 121.93 113.43C123.94 113.6 126.92 117.59 128.07 119.19C125.11 119.15 121.65 119.15 118.86 120.26C118.19 120.53 117.84 120.22 118.02 121.28C123.05 121.29 132.94 122.34 136.96 125.45C138.34 126.51 138.36 129.12 141.04 128.39C141.12 127.65 141.06 127.03 140.81 126.32C139.88 123.74 136.07 118.72 134.55 115.85C133.2 113.3 129.16 105.64 128.66 103.3C128.44 102.27 129.44 101.17 129.65 100.06C129.89 98.75 129.31 96.52 130.58 95.77C133.49 108.01 139.91 119.06 147.16 129.19C148.42 130.94 150.32 132.55 151.5 134.15C152.41 135.38 152.81 137.23 154.03 138.64C154.76 139.48 157.38 141.9 157.08 139.37C156.74 136.49 153.19 131.8 151.85 128.68C150.74 126.11 150.3 122.83 148.58 120.87L148.16 122.54C146.27 119.5 144.14 117.09 143.16 113.53C138.54 96.79 156 80.44 172.46 83.83C176.33 84.63 180.19 86.5 183.32 88.87C180.16 90.08 177.38 90.53 175.19 93.28C169.13 100.89 174.69 106.58 173.66 114.34C172.99 119.35 168.33 123.39 164.2 125.8C163.67 126.11 161.7 127.42 161.34 126.73C160.21 118.1 159.53 108.9 165.16 101.66L171.19 94.51C170.44 93.88 164.39 99.7 163.67 100.58C149.82 117.58 163.64 140.4 171.49 156.32C176.43 166.33 180.72 181.86 179.98 193C178.9 209.1 164.94 238 170.66 251.68C170.88 252.2 170.89 252.92 171.61 253.03V244.46C171.61 244.11 172.72 240.66 172.96 239.95C173.42 238.56 174.75 236.63 174.97 235.26C175.16 234.04 173.88 234.87 173.29 235.05C172.44 233.96 180.04 211.9 181.03 208.7C182.01 205.52 182.43 202.16 183.45 198.99C186.81 188.64 193.49 181.47 202.79 176.08C203.55 176.57 203.38 177.19 203.44 177.93C203.95 184.72 198.85 188.87 196.64 194.6C196.48 195.01 195.96 195.87 196.51 196.14C209.45 186.8 208.38 172.28 200.66 159.78C196.77 153.47 191.15 147.93 187.99 141.07C185.53 135.74 184.58 130.01 184.16 124.19C183.56 124.25 183.43 126.05 183.38 126.54C181.53 142.73 191.64 150.23 198.47 162.81C198.96 163.71 201.5 168.35 200.91 168.94C190.44 169.18 180.36 160.04 177.35 150.45C173.68 138.71 180.57 123.71 185.01 112.9C186.87 114.9 188.27 117.38 190.36 119.14C201.33 128.36 214.93 131.33 216.38 148.67C216.95 155.47 215.19 164.19 208.44 167.28C205.51 158.44 199.09 151.06 194.29 143.15C192.8 140.7 191.51 138.08 190.16 135.55C189.86 135 190.38 134.42 189.19 134.65C190.47 150.15 206.95 160.06 208.02 175.44C208.33 179.94 207.33 183.87 206.35 188.19C211.83 182.83 208.74 174.51 213.03 168.73C219.32 170.3 226.33 170.31 232.29 167.48C235.86 165.78 238.39 162.36 242.76 161.83C242.72 161.26 242.27 160.78 242.53 160.18C242.79 159.58 246.79 155.43 247.58 154.74C250.74 152.02 260.25 146.75 264.33 147.37C264.88 147.45 266.18 149.28 267.15 149.79C272.44 152.57 274.74 149.74 279.06 149.36C283.38 148.98 297.86 159.98 300.92 163.72C287.21 164.7 284.19 183.18 270.48 185.16C260.53 186.6 244.14 179.5 241.04 169.2C252.48 163.19 265.82 160.24 278.74 161.42C278.84 160.83 278 160.81 277.58 160.71C267.09 158.1 250.21 162.08 240.37 166.37C213.3 178.18 194.21 204.55 191.27 234C190.48 241.91 191.27 249.33 191.68 257.21C190.62 256.56 190.12 254.73 189.69 253.55C188.9 251.41 187.09 246.37 186.76 244.35C186.37 241.93 187.3 239.93 187.07 237.55L185.61 238.38C183.27 234.21 185.48 230.02 186.65 225.84L184.76 227.09C184.07 227.18 184.08 227.12 184.13 226.47C184.25 224.88 184.74 220.48 185.2 219.17C185.77 217.56 189.32 214.02 189.99 212.24C190.66 210.46 186.84 213.08 186.65 212.87C187.45 208.7 190.97 204.89 194.6 202.83C194.09 201.35 190.14 204.48 190.41 202.63C190.71 200.57 194.61 194.18 195.64 191.54C196.25 189.98 197.25 187.72 196.91 186.11C188.18 193.34 182.47 205.61 180.09 216.56C176.18 234.57 181.18 252.77 194.19 265.79C193.13 266.54 191.7 266.36 190.49 266.71C189.76 266.92 189.4 266.57 189.59 267.66C191.79 267.57 194.87 267.72 196.69 269.14C198.87 270.85 202.68 277.21 204.86 279.8C223.19 301.52 250.5 310.26 277.81 314.81C288.92 316.66 301.2 318.33 312.42 317.44C319.7 316.86 325.8 315.46 333.36 315.77C333.87 315.79 334.92 315.45 334.82 316.18L311.17 319.11C309.64 319.18 308.1 319.04 306.57 319.11C287.02 320.1 267.38 318.72 248.1 315.21C246.17 314.86 244.26 314.36 242.32 314.08L245.25 312.42C238.51 312.09 231.74 311.98 225.16 310.32L231.43 307.82C228.63 307.66 225.64 308.03 222.86 307.81C221.44 307.7 213.64 306.6 212.75 306.24C212.27 306.05 209.43 304.19 210.09 303.63C211.19 303.72 212.25 303.55 213.3 303.27C214.02 303.07 214.47 303.57 214.27 302.38C212.36 302.39 210.18 302.22 208.32 301.85C203.94 300.98 192.6 293.99 188.36 291.26C187.6 290.77 186.84 290.3 186.24 289.62C186.55 288.94 187.21 289.83 187.28 289.83C189.6 289.83 192.62 290.09 194.81 289.83L194.83 289.86ZM155.28 95.78C152.09 98.89 149.02 107.95 154.24 110.41C155.7 110.34 154.4 103.43 154.41 102.27C154.42 100.37 155.17 97.76 155.28 95.79V95.78ZM150.67 108.33C149.59 108.21 150.01 108.33 149.82 108.94C148.71 112.64 148.11 119.56 152.76 120.87L150.67 108.32V108.33Z" fill="#FF5B00"/>
<path d="M413.94 97.46C419.97 107.16 419.64 118.44 414.73 128.57C410.92 136.44 402.97 144.27 393.44 142.22L399.88 133.39L400.77 130.09C397.21 134.2 393.59 138.28 389.22 141.55C387.71 142.68 383.61 145.58 382.02 146.07C380.19 146.63 378.14 145.79 377.12 147.23C388.56 150.41 400.26 153.59 409.14 161.87C409.07 159.2 405.9 157.32 404.33 155.38L395.96 149.74C403.76 148.43 410.04 149.75 416.6 154C432.94 164.58 430.89 179.08 427.35 196.17C417.52 187.48 404 187.68 395.11 177.57C392.02 174.06 388.57 168.44 387.46 163.88C387.24 162.96 386.15 157.8 387.41 157.68C393.04 159.88 397.67 161.69 399.93 167.73C400.28 168.66 401.21 173.58 401.61 173.57C403.76 171.06 402.1 168.3 401.4 165.63C405.72 168.42 407.34 174.49 407.68 179.43C408.65 179.64 408.35 179.31 408.62 178.9C409.69 177.23 409.27 175.62 409.35 173.78C409.37 173.31 409.08 172.63 409.76 172.75L416.04 179.86C413.9 171.9 407.07 165.45 400.36 161.03C390.44 154.49 376.32 149.85 364.36 150.59C362.24 150.72 357.61 152.06 356.01 151.85C354.69 151.68 353.91 149.37 353.26 148.29C353.23 147.8 361.83 146.93 362.99 146.7C382.66 142.78 404.77 131.35 408.09 109.59L404.75 116.07C400.61 123.04 394.9 128.89 388.16 133.38L385.83 130.37C384.91 127.7 381.91 122.29 382.79 119.65C383.81 116.59 388.9 111.05 391.63 109.24C397.15 105.58 404.09 105.96 409.13 102.05C410.65 100.87 411.68 99.15 412.93 97.9C413.27 97.56 413.3 97.3 413.94 97.46Z" fill="#FF5B00"/>
<path d="M415.02 35.72C420.11 40.29 425.11 46.62 425.67 53.73C426.47 63.75 423.15 74.32 415.04 80.57C414.37 81.09 412.39 82.45 411.85 82.19C414.73 76.87 415.35 70.32 414.36 64.41C412.97 65.01 413.71 67.01 413.48 68.34C412.32 75.3 408.65 82.44 405.22 88.53C404.6 89.64 399.65 96.95 400.13 97.45C401.89 97.39 402.58 95.59 404.08 94.92C405.77 94.16 411.75 93.02 413.74 92.86C418.78 92.45 424.11 92.99 429.01 94.1C425.75 90.77 420.02 90.86 415.62 90.34C417 87.56 420.03 85.46 422.97 84.51C437.93 79.68 459.82 93.34 460.4 109.58C451.3 106.45 444.15 114.9 436.3 115.82C431.4 116.4 425.4 115.32 421.04 113.06C421.07 108.53 419.9 104.2 418.55 99.96C425.36 99.15 432.39 99.28 439.06 101C441.69 101.68 443.86 102.84 446.29 103.81C446.69 103.97 447.57 104.48 447.84 103.94C442.36 99.2 434.34 96.62 427.12 96.2C423.84 96.01 419.4 97.03 416.68 96.59C415.04 96.32 414.07 94.6 412.46 94.21C410.63 96.26 409.27 98.69 406.95 100.31C402.54 103.38 395.89 103.2 390.9 106.02C388.34 107.47 381.93 113.5 380.04 114.03C379.02 114.32 377.44 112.23 377.14 111.42C376.84 110.61 379.31 110.11 379.97 109.74C401.61 97.71 413.53 72.01 407.22 47.68C406.51 47.6 406.76 49.12 406.79 49.58C406.92 52.24 407.56 54.95 407.22 57.72L404.31 53.73L400.95 52.28C401.98 54.59 403.56 56.61 404.5 58.98C405.19 60.72 405.94 62.74 405.99 64.6L405.56 68.59C405.41 65.52 403.4 61.58 400.12 61.07C400.93 63.27 402.5 65.11 403.25 67.35C403.67 68.61 404.24 71.23 404.32 72.55C404.56 76.38 402.14 79.3 400.95 82.81C397.65 81.32 395.38 76.25 394.38 72.86C389.17 55.17 397.33 49.35 402.4 34.69C402.95 33.1 403.57 28.92 404.08 28C404.49 27.25 406.04 28.58 406.53 28.92C409.28 30.82 412.51 33.48 415.01 35.72H415.02Z" fill="#FF5B00"/>
<path d="M219.32 79.47C214.95 77.95 218.72 70.41 217.67 66.69C217.05 57.29 215.92 47.98 213.46 38.89C212.75 38.89 212.55 38.65 212.66 39.48C213.61 46.42 214.15 53.41 214.74 60.42L214.3 75.7C213.34 75.63 212.82 74.9 211.81 74.63C207.63 73.5 206.72 74.77 202.92 71.48C194.58 64.26 196.4 50.98 200.29 41.83C203.03 35.4 207.48 29.66 209.89 22.98C210.2 22.12 210.01 20.36 210.94 20.06C212.26 23.61 214.54 27.17 216.83 30.18C221.57 36.41 228.53 41.1 231.53 48.63C234.15 55.21 234.05 63.47 232.6 70.35C231.31 76.51 227.11 81.59 220.99 83.21C220.72 79.74 221.15 76.1 220.99 72.55C220.85 69.65 220.49 65.87 220.11 62.97C220.05 62.52 219.95 61.01 219.32 61.04V79.44V79.47Z" fill="#FF5B00"/>
<path d="M277.91 94.53C278.02 95.11 278 95.07 277.64 95.4C276.95 96.04 275.39 96.88 274.71 97.6C269.24 103.31 265.41 110.32 259.29 115.88C248.95 125.27 233.75 128.93 220.99 121.93C232.13 110.15 247.06 102.37 262.75 98.42C264.93 97.87 269.11 97.58 270.8 96.84C270.98 96.76 271.49 96.21 271 96.2C246.15 94.16 223.89 109.15 210.1 128.65C209.63 129.1 208.05 128.1 208.02 127.79C207.97 127.32 213.47 121.52 214.28 120.66C221.6 112.85 229.53 104.89 238.98 99.75C235.66 99.5 232.66 101.52 229.78 102.89C229.35 102.43 232.89 98.29 233.53 97.66C234.74 96.46 236.08 95.11 237.73 94.52L237.52 93.69C232.94 93.06 226.52 99.35 227.93 104.15L220.99 109.16C223.11 93.88 236.53 83.26 252.05 85.02C261.12 86.04 268.9 93.43 277.91 94.53Z" fill="#FF5B00"/>
<path d="M348.41 146.22C354.99 153.1 360.82 166.07 354.72 174.83C348.12 168.92 338.26 171.07 330.03 170.23C317.72 168.98 306.91 162.52 309.73 148.48C317.31 151.22 324.67 154.65 331.77 158.45C334.39 159.85 338.49 162.95 341 163.86C341.3 163.97 341.9 164.17 341.95 163.75C327.78 151.28 309.92 142.56 291.09 140.11C290.61 140.05 290.24 140.28 290.48 139.5C290.79 138.46 291.92 136.31 293.13 136.37C299.04 136.65 305.59 139.73 311.12 141.69C324.42 134.48 337.7 135.02 348.41 146.21V146.22Z" fill="#FF5B00"/>
<path d="M89.57 133.01C87.98 132.76 86.39 132.28 84.77 132.16C84.11 132.11 81.9 131.85 81.62 132.59C84.15 133.34 86.86 134.51 89.25 135.63C91.37 136.63 93.04 138.86 95.71 137.91L99.62 140.54C94.38 140.28 89.22 141.31 84.04 141.91L64.05 146.81C67.82 146.94 71.48 145.73 75.2 145.2C84.92 143.82 94.84 142.6 104.65 143.47C102.32 145.11 101.76 149.13 100.33 150.87C96.79 155.19 83.21 159.78 77.64 160.19C65.68 161.08 57.49 154.39 46.47 151.83C47.19 149.94 48.41 148.26 49.18 146.39C51.44 140.9 52.16 134.97 56.93 130.71C61.7 126.45 71.79 123.7 78.05 124.67C81.34 125.18 87.21 130.62 89.59 133.01H89.57ZM84.42 135.23C82.71 133.4 75.28 131.94 72.83 133.02L84.36 138.03C85.95 138.01 85.1 135.96 84.42 135.23ZM67.81 137.19C69.89 137.27 72.96 138.3 74.84 138.36C76.72 138.42 76.39 137.26 75.07 136.42C73.16 135.19 70.35 135.34 68.34 136.26C67.78 136.52 67.68 136.3 67.81 137.19ZM70.31 141.37C69.36 138.63 65.08 140.38 63.24 141.62C62.63 142.03 61.33 142.59 61.53 143.46L70.31 141.37Z" fill="#FF5B00"/>
<path d="M356.6 68.59C356.15 68.19 359.34 64.15 359.69 63.53C362.19 59.04 365.27 52.79 365.18 47.68C360.01 58.07 354.84 67.63 346.35 75.72C344.32 77.65 340.41 81.21 338.15 82.58C336.62 83.51 334.54 83.94 333.02 84.98C326.88 89.16 325.48 92.8 316.92 93.58C316.46 93.62 315.5 94.08 315.58 93.29C328.03 87.18 340.11 78.23 349.49 67.99C358.32 58.35 366.5 45.58 367.47 32.22C366.2 31.99 366.83 32.6 366.6 33.21C365.86 35.16 365.38 37.3 364.63 39.21C360.71 49.11 355.01 58.21 347.6 65.68C342.28 58.42 343.98 46.02 348.73 38.79C354.31 30.3 363.61 28.17 369.75 20.48L372.5 15.92C375.33 23.35 378.55 30.78 379.57 38.76C381.63 54.9 373.55 67.67 356.6 68.61V68.59Z" fill="#FF5B00"/>
<path d="M186.66 8.77997C188.17 16.15 195.33 20.51 197.43 27.51C199.63 34.85 196.97 45.01 194.1 51.97C191.39 58.53 185.35 65.33 179.97 69.85C179.2 63.67 183.95 58.91 186.73 53.82C187.26 52.85 190.1 47.95 189.58 47.26L179.54 60.23C179.4 55.92 182.28 52.3 184.02 48.61C184.89 46.77 187.2 42.45 187.49 40.79C187.53 40.55 187.6 40.1 187.28 40.16C186.92 40.5 186.56 40.84 186.24 41.21C184.17 43.63 182.64 46.6 180.87 49.23C180.5 49.77 180.39 50.37 179.53 50.19C179.41 46.03 181.5 43.03 182.78 39.43C184.06 35.83 185.33 31.96 186.65 28.24C185.98 27.36 185.95 28.23 185.69 28.55C183.68 31.05 182.82 34.45 180.79 36.8C181.33 29.33 183.69 22.11 184.94 14.8C185.01 14.39 185.31 12.87 184.56 12.96C177.1 34.74 173.51 57.46 176.92 80.46L175.35 81.55L172.83 57.71C171.43 56.21 171.04 63.77 170.73 63.98C163.58 61.24 162.59 47.81 163.25 41.24C163.95 34.22 170.38 24.4 174.73 18.84C175.99 17.23 185.02 7.58997 186.63 8.77997H186.66Z" fill="#FF5B00"/>
<path d="M104.47 44.93C111.3 50.47 114.23 61.91 111.75 70.27C108.04 69.96 107.05 69.86 104.41 67.35C98.81 62.02 94.25 54.65 90.19 48.11L82.88 32.63C85.68 46.74 93.78 59.64 102.96 70.48C100.45 72.17 99.03 69.35 97.53 67.54C95.24 64.77 93.36 61.64 91.32 58.69L85.38 47.27C87.17 56.47 91.69 65.3 97.51 72.58C97.68 73.53 97.1 73.15 96.47 73.2C90.42 73.67 85.54 70.74 81.19 66.93C80.48 67.83 84.83 71.68 85.65 72.3C87.81 73.92 91.03 75.7 93.74 75.72L91.87 78.5C78.55 74.15 68.72 58.9 69.89 44.98C70.25 40.74 74.14 26 76.37 22.6C76.48 22.43 76.86 22.04 76.99 22.18C78.39 27.05 82.17 31.5 86.24 34.48C91.86 38.6 99.16 40.65 104.45 44.94L104.47 44.93ZM80.36 57.3C79.58 58.17 82.89 61.86 83.74 62.5C84.79 63.29 88.43 65.54 89.38 64C90.75 61.77 86.17 60.92 84.55 60.03C82.93 59.14 81.93 57.92 80.37 57.31L80.36 57.3Z" fill="#FF5B00"/>
<path d="M294.24 29.7C294.47 30.7 294.06 30.37 293.69 30.63C286.96 35.28 284.41 37.81 280.9 45.44C280.01 47.38 278.07 53.96 277.06 54.99C276.28 55.79 270.91 57.44 269.18 58.41C264.63 60.95 261.91 64.71 259.5 69.23C255.45 70.44 251.79 69.56 247.78 69.02C247.33 68.62 251.42 63.38 251.99 62.66C259.87 52.76 269.82 45.78 280.71 39.81C281.97 39.12 283.66 38.27 284.61 37.23C277.16 39.32 269.88 43.75 263.55 48.18C252.73 55.75 245.11 64.45 238.5 75.85C236.91 78.58 235.18 83.26 233.49 85.48C232.83 86.35 231.96 86.89 231.04 87.42C238.44 68.31 251.77 50.93 270.38 41.82C270.41 41.23 270.59 40.81 269.8 41.03C267.29 41.72 262.47 44.19 260.05 45.52C254.82 48.38 251.82 51.58 247.36 55.01C246.94 55.33 246.83 55.82 246.1 55.63C244.75 49.83 246.98 43.56 250.7 39.11C249.78 38.72 247.86 40.98 247.18 41.87C243.83 46.24 242.5 51.18 242.78 56.65C242.82 57.39 243.46 58.25 243.42 58.78C243.38 59.31 241.24 62.02 240.66 61.5C237.4 49.61 244.2 38.33 253.67 31.63C263.96 24.35 272.43 25.13 284.27 27.32C287.61 27.94 290.93 28.92 294.23 29.71L294.24 29.7ZM256.11 46.8C256.36 46.63 257.02 43.51 257.32 42.79C258.02 41.15 259.47 39.39 259.99 37.92C260.21 37.29 260.48 37.42 259.7 36.81C257.31 37.81 253.09 43.21 253.69 45.71C253.89 46.55 255.47 47.24 256.1 46.8H256.11Z" fill="#FF5B00"/>
<path d="M151.09 278.15C150.64 278.6 148.61 276.14 147.75 277.1C151.55 280.81 152.04 285.82 153.19 290.7L154.85 289.87C156.16 294.27 159.47 297.7 161.55 301.57C155.05 304.44 152.23 311.59 147.74 316.64L153.17 296.98L149.41 301.16C148.81 297.42 148.1 293.03 145.22 290.29C145.65 295.46 146.84 300.54 146.47 305.76C145.43 305.03 144.98 303.46 143.95 302.64C143.62 302.38 140.56 300.6 140.62 301.79C140.62 301.96 142.15 303.2 142.47 303.7C145.56 308.48 145.1 313.28 142.08 317.89C141.08 316.13 140.43 313.4 138.11 312.87C140.36 318.31 140.08 323.24 134.97 326.66C134.11 326.68 134.43 322.55 132.67 322.91C132.5 328.02 131.1 330.25 126.6 332.53L126.4 330.23L125.57 330.02C123.83 334.19 119.79 335.74 115.52 335.87L115.93 333.78C114.37 333.55 113.36 335.12 112.05 335.55C108.49 336.71 104.38 335.3 100.86 334.61L108.79 332.72C131.33 325.63 127.28 298.67 138.68 281.86C139.58 280.53 141.8 278.72 142.25 277.47C142.5 276.77 140.39 276.11 139.95 276.06C138.77 275.93 137.85 276.65 136.86 276.27C140.28 269.58 142.51 260.99 150.25 258.07C148.83 264.75 149.6 271.55 151.09 278.14V278.15Z" fill="#FF5B00"/>
<path d="M101.43 112.79C101.28 112.72 101.15 112.06 100.58 111.78C98.95 110.97 96.04 111.05 94.59 109.38C95.96 108.66 98.26 110.02 99.19 108.34C93.82 108.36 89.43 104.67 88.07 99.58C87.96 99.17 87.54 98.2 88.3 98.3C89.38 101.22 91.91 102.71 94.56 103.98L95.42 103.33C89.93 100.41 87.45 93.06 90.4 87.43C91.45 87.53 90.02 89.52 91.65 89.1C92.17 76.42 104.78 67.61 116.32 75.11C122.4 79.07 128.04 88.98 127.12 96.31C126.37 102.27 123.43 104.57 120.77 109.2C120.41 109.82 120.63 110.72 120.15 111.51C119.95 111.84 117.81 113.42 117.32 113.7C111.66 117.03 106.83 115.32 101.42 112.79H101.43ZM100.44 99.55C98.44 99.53 99.42 101.91 100.09 103.04C101.74 105.81 105.9 106.68 108.86 106.91C110.07 109.63 106.55 109.6 105.47 111.26C107.08 111.96 110.4 108.87 110.7 108.84C111.05 108.81 111.92 109.69 112.51 109.88C114.65 110.56 117.98 111.07 119.7 109.38C117.15 109.18 114.57 109.21 112.59 107.29C115.22 106.95 117.98 105.97 119.28 103.52C117.98 102.97 116.94 104.61 115.63 104.89C114.63 105.1 113.59 104.96 112.59 104.98C113.79 103.41 115.2 101.65 115.1 99.55C111.39 105.74 104.07 105.45 100.45 99.55H100.44Z" fill="#FF5B00"/>
<path d="M169.93 282.75C168.32 281.89 166.42 281.06 164.94 280C164.4 279.62 162.04 276.78 161.57 277.31C161.51 286.99 172.92 288.17 179.44 291.87C199 302.96 216.3 317.82 238.26 324.27C251.5 328.16 264.95 329.24 278.44 331.8C279.28 331.78 283.75 334.63 282.94 335.45C275.98 329.34 266.75 332.68 258.46 332.1C244.38 331.11 224.22 326.04 210.63 321.76C207.34 320.72 199.63 318.53 197.01 316.97C195.96 316.35 195.82 314.42 194.76 314.16C193.84 313.93 193.39 315.21 192.03 314.88C190.51 314.51 184.28 311.08 183.12 309.93C181.51 308.33 181.39 306.37 179.72 304.94C178.06 304.65 178.73 307.83 177.68 307.42C177.29 307.27 174 304.92 173.5 304.49C170.18 301.63 170.15 298.43 169.09 294.46C168.02 293.64 166.7 297.9 167 298.64C155.14 287.31 153.79 270.08 154.43 254.49L155.28 250.95C156.34 259.4 159.94 267.22 164.15 274.51L169.93 282.74V282.75Z" fill="#FF5B00"/>
<path d="M488.03 131.75C488.44 131.07 491.22 128.57 491.67 128.47C492.23 128.34 492.92 128.82 493.57 128.72C496.1 128.31 498.1 127.51 500.29 126.23C500.93 125.86 505.93 122.48 505.18 121.71C501.86 123.3 498.37 125.55 494.72 125.69L497.23 123.17C497.67 122.11 495.87 122.64 495.55 122.75C490.81 124.28 485.11 129.46 480.18 131.26L477.57 129.87C488.49 123.43 499.08 115.77 506.02 104.99C505.2 104.82 504.89 105.17 504.33 105.59C501.74 107.5 498.99 110.59 496.41 112.73C491.22 117.02 485.21 121.63 479.37 124.98C474.34 127.87 470 131.63 469.25 123.13C468.22 111.38 478.04 101.8 488.54 98.59C496.37 96.2 503.4 97.12 511.25 96.61C512.85 96.51 514.65 95.81 516.27 95.77C517.14 95.75 516.89 95.64 516.7 96.21C512.38 109.68 514.71 124.44 500.29 132.52C496.95 134.39 489.44 137.06 485.73 136.35C483.86 135.99 482.82 133.33 485.31 133.48C486.09 133.53 486.65 134.18 487.42 134.25C489.79 134.49 493.97 134.19 495.97 132.8C496.8 132.22 495.81 131.76 495.35 131.76H488.03V131.75ZM511.05 112.52C510.24 111.88 503.8 117.25 502.09 117.08L501.84 118.37C505.52 119.13 509.32 115.52 511.05 112.52Z" fill="#FF5B00"/>
<path d="M254.48 -1.95317e-05C253.9 1.96998 253.2 4.08998 252.86 6.10998C251.8 12.41 251.99 18.95 251.09 25.25C249.96 33.12 247.44 31.6 243.63 36.71C240.75 40.58 239.79 45.82 233.61 45.53C233.91 44.12 228.92 39.29 229.38 38.89C231.81 39.11 235.49 38.54 236.49 35.96C233.53 36.47 230.63 36.99 227.74 35.92C227.63 28.51 236.44 31.55 240.26 26.96C240.42 26.08 239.93 26.28 239.3 26.42C236.79 27 234.11 28.42 231.47 27.8L235.34 22.28C239.41 21.93 242.72 21.04 246.11 18.8C246.03 18.31 245.75 18.1 245.24 18.13C243.31 18.26 240.73 19.58 238.57 19.22L244.85 13.37C235.42 16.15 228.47 25.76 225.17 34.7C221.32 32.9 224.11 29.03 226 26.86L231.45 18.39C230.4 17.51 225.13 23.96 224.41 24.94C223.18 26.6 222.37 29 220.81 30.08C220.24 29.96 214.53 22.25 214.36 21.42C214.07 19.98 215.27 16.62 215.89 15.17C217.64 11.12 222.06 6.35998 225.99 4.34998C234.92 -0.23002 245.16 3.00998 254.47 -0.0200195L254.48 -1.95317e-05Z" fill="#FF5B00"/>
<path d="M42.51 146.15C42.91 146.49 44.66 148.07 44.68 148.27C44.1 149.33 43.28 150.51 42.49 151.42C41.7 152.33 40.45 152.46 40.6 153.5C43.67 154.39 47.37 154.77 50.23 156.22C50.88 156.55 51.64 156.74 51.48 157.68C38.89 158.55 26.68 155.48 15.07 150.99C16.53 152.7 19.38 153.87 21.48 154.82C29.74 158.55 38.61 160.61 47.71 160.61L37.68 163.76C36.37 163.96 35.04 165.66 34.1 166.04C32.85 166.56 34.2 163.98 33.9 163.54C33.08 162.75 25.27 166.81 23.44 166.47C26.14 168.78 30.05 167.3 33.07 166.47C31.16 168.28 29.21 169.99 27.7 172.18C27.05 173.12 26.56 175.55 25.37 175.64C22.6 175.86 15.22 171.87 12.98 170.02C4.36 162.9 5 152.98 0.0100021 143.88C7.08 143.05 13.68 139.03 20.78 138.49C27.98 137.95 37.08 141.49 42.52 146.14L42.51 146.15ZM26.37 161.87H19.88C19.83 161.87 18.78 161.05 18.84 162.08C18.93 163.64 26.26 165.38 26.37 161.87Z" fill="#FF5B00"/>
<path d="M66.96 120.88C60.62 119.6 54.16 119.5 47.71 119.63L50.9 120.41C56.34 120.53 61.63 121.66 66.96 122.56L63.4 123.84C51.6 121.66 39.87 121.07 28.04 123.39C27.94 124.12 28.99 123.78 29.5 123.8C34.92 124.02 40.41 123.8 45.82 124.22C49.97 124.54 54.43 125.41 58.59 125.89L52.98 130.52C51.95 132.04 50.92 133.54 50.15 135.22C49.56 136.51 48.63 140.88 47.51 140.96C46.54 141.03 42.7 140.13 41.53 139.81C30.31 136.71 22.15 127.85 11.31 124.21L17.13 121.04C24.44 116.52 28.53 107.16 37.89 106.23C49.02 105.12 63.04 109.39 66.97 120.86L66.96 120.88Z" fill="#FF5B00"/>
<path d="M273.31 91.18L277.59 90.66C281.72 89.82 285.39 87.58 288.37 84.7C286.5 84.58 284.61 86.41 282.8 87.08C279.17 88.45 275.86 88.59 272.05 87.83L276.2 83.73C280.01 79.03 283.8 73.82 286.06 68.17C286.32 67.52 286.99 66.3 286.49 65.67C282.74 71.67 278.57 77.45 273.52 82.42C272.8 83.13 267.81 87.52 267.42 87.63C266.78 87.81 264.96 87.72 265.36 86.8C270.39 83.02 274.95 78.45 278.88 73.51C283.7 67.43 288.45 60.06 290.89 52.71C288.76 55.58 287.12 58.83 285.13 61.8C280.61 68.53 274.61 75.43 268.3 80.53C267.32 81.33 262.76 84.87 261.99 85.13C259.13 86.09 259.73 78.5 259.92 76.76C262.1 56.87 282.95 60.08 293.68 49.64L298.01 43.93C298.88 47.88 299.98 51.87 300.47 55.9C301.94 67.81 300.77 76.24 292.11 85.09C289.76 87.49 281.79 93.22 278.55 93.12C277.31 93.08 274.85 91.21 273.32 91.2L273.31 91.18ZM290.05 75.71C289.79 75.47 285.42 77.69 284.6 78C283.67 78.35 280.06 78.29 281.03 80.3C282.25 82.82 290.19 78.45 290.05 75.71Z" fill="#FF5B00"/>
<path d="M165.74 75.28L161.96 69.65C158.18 65.73 154.25 61.58 149.8 58.38C148.38 57.36 146.53 55.87 144.81 55.63C151.49 63.43 160.16 70.04 163.58 80.18C163.91 80.85 162.92 80.96 162.5 81.03C159.12 81.63 155.97 81.36 152.77 83.23C150.18 76.66 144.33 71.59 139.38 66.7C136.79 64.14 134.81 63.33 132.86 59.83C130.27 55.17 129.07 49.63 126.89 44.88C125.54 41.94 124.38 40.77 121.79 38.9C145.87 32.15 164.06 52.81 165.73 75.28H165.74Z" fill="#FF5B00"/>
<path d="M267.03 147.22C266.84 146.25 267.11 146.56 267.57 146.3C267.96 146.08 270.51 144.8 270.68 144.77C271.99 144.56 272.29 146.33 273.72 145.97L273.74 143.9C275.55 144 276.37 143.39 277.07 141.8C275.38 141.8 273.71 142.11 272.46 140.76C271.75 140 271.71 138.33 270.38 138.45C269.7 142.02 271.2 142.74 266.95 144.02C256.7 147.09 248.46 137.85 249.91 127.82C250.35 124.77 252.68 124.96 254.8 123.52C257.47 121.7 260.69 118.93 263.01 116.65C266.72 113.01 265.84 110.68 272.21 111.31C281.44 112.22 291.21 123.92 290.01 133.18C289.01 140.93 275.03 151.91 267.03 147.22ZM280.85 140.12C286.4 140.04 288.47 132.91 287.92 128.25C287.51 124.78 282.45 117.05 279.2 115.64C278 115.12 275.52 114.33 275.41 116.28C280.04 116.25 283.47 123.33 283.38 127.35C283.35 128.7 280.41 134.79 284.03 132.21C284.81 131.65 284.64 130.31 285.46 130.09C285.98 134.1 283.59 137.51 280.86 140.12H280.85Z" fill="#FF5B00"/>
<path d="M201.74 74.45C202.4 75.35 198.56 76.56 198.14 77.34H197.6C197.63 76.46 196.43 75.97 195.69 76.12C194.32 76.39 196.31 77.82 195.89 78.21C194.8 77.48 191.96 80.22 192.54 80.72C193.51 80.93 194.58 80.27 195.48 80.49C196.9 80.82 198.36 83.37 199.02 83.23C200.42 82.93 198.95 80.22 199.42 79.48C200.05 78.47 203.67 77.16 204.93 77.01C220.19 75.17 224.82 93.8 214.99 103.59C204.31 114.22 189.67 111.19 182.69 98.31C182.13 97.28 179.72 92.57 181.45 92.03L182.71 92.43C183.06 93.39 182.82 94.41 183.09 95.4C183.9 98.4 189.7 105.91 192.84 106.57C194.19 106.86 197.73 106.37 195.58 105.51C194.76 105.18 194 105.18 193.08 104.66C189.32 102.54 185.22 93.84 189.51 90.57L186.25 86.82L188.77 82.41C188.31 81.96 184.38 84.45 184.58 85.75L182.5 84.71C186.55 78.38 193.65 72.08 201.75 74.46L201.74 74.45Z" fill="#FF5B00"/>
<path d="M385.25 134.11C385.45 134.35 386.07 134.06 385.9 134.68C372.31 133.85 354.74 143.44 342.25 135.86C337.3 132.85 334.04 127.42 334.4 121.56C334.64 120.67 340.07 120.9 341.12 120.88C340.48 123.34 342.81 127.98 345.1 128.82C346.7 129.41 344.57 126.08 344.44 125.71C343.93 124.16 343.5 122.53 343.62 120.88L349 121.37C349.92 123.74 352.76 128.32 355.14 129.24C355.65 129.44 355.96 129.14 355.76 128.62C355.12 126.98 351.89 124.34 352.62 122.14C353.93 122.99 358.07 123.43 359.01 124.33C359.46 124.76 360.62 127.69 361.45 128.79C361.82 129.27 366.34 134.08 365.3 131.22C365.02 130.46 362.03 126.41 362.46 125.9L369.99 130.08C370.47 129.6 366.86 126.33 366.32 125.92C361.2 122.01 354.18 119.56 347.81 118.79C350.04 117.05 352.65 116.82 354.18 114.07C354.7 113.13 354.76 111.91 355.16 111.29C355.52 110.72 357.15 110.06 357.86 109.39C359.64 107.72 359.81 106.03 362.55 106.34C366.74 106.82 372.73 110.39 375.43 113.58C380.48 119.55 380.34 128.2 385.25 134.12V134.11Z" fill="#FF5B00"/>
<path d="M467.94 166.89L471.97 164.23C472.94 163.02 473.8 161.84 473.8 160.2C475.2 160.62 474.33 163.96 474.64 164.38C476.66 163.8 475.39 159.28 475.64 158.93C475.91 158.55 477.67 158.14 478.37 157.45C479.17 156.65 479.27 155.38 479.88 154.78C480.39 154.28 481.36 154.11 482.19 153.32C483.17 152.39 484.12 150.68 484.26 149.33C482.63 150.7 480.81 154.14 478.41 152.05C479.43 150.99 480.21 149.6 480.07 148.08C475.82 152.2 468.66 152.61 463.67 149.62C462.75 149.07 462.74 148.04 461.66 148.08C462.97 152.85 468.64 153.98 472.96 154.15C471.17 159.9 463.18 158.44 458.73 156.86C458.47 157.85 459.37 157.89 460.04 158.25C463.21 159.96 465.33 160.45 468.98 160.2C469.75 160.15 471.97 158.99 472.12 160C472.38 161.75 470.05 163.72 468.64 164.46C462.36 167.74 454.39 165.42 451.31 159.04C447.4 150.93 449.6 141.21 456.01 135.11C456.29 136.88 455.29 138.52 455.37 140.32C455.41 141.27 455.89 142.76 456.22 143.69C456.38 144.16 456.45 145.2 457.06 145.14C456.58 140.4 458 132.66 463.25 131.04C467.27 129.8 472.29 130.45 476.04 132.24C494.2 140.85 486.86 166.15 467.94 166.89Z" fill="#FF5B00"/>
<path d="M331.49 104.36C330.38 114.84 320.83 129.07 310.15 131.56C306.82 132.34 304.27 132.08 300.93 131.75C303.62 129.33 308.7 127.09 308.68 122.97C305.11 125.65 301.36 128.09 297.32 130.02C296.46 130.43 294.3 131.54 293.6 131.74C292.74 132 292.83 130.9 292.98 130.36C293.11 129.88 300.04 125.76 301.31 124.8C305.81 121.4 311.11 116.12 314.5 111.63C314.99 110.98 318.89 105.32 318.51 104.98C317.9 104.43 317.43 105.25 317.14 105.5C309.09 112.32 303.34 121.74 292.79 125.06C291.23 121.21 293.56 116.14 295.42 112.64C298.76 106.35 304.43 99.86 311.41 97.66C317.71 95.68 324.86 96.73 330.64 93.02L331.49 93.47C331.22 96.96 331.85 100.93 331.49 104.35V104.36Z" fill="#FF5B00"/>
<path d="M512.3 132.17L510.63 130.5C518.39 126.87 526.04 127.44 533.6 131.17C548.97 138.77 559.97 159.63 548.06 174.79C547.6 175.37 544.72 178.41 544.32 178.59C543.86 178.79 543.62 178.55 543.6 178.08C540.22 161.89 534.54 148.76 518.45 142.13C515.68 140.99 507.69 138.44 504.98 138.44H494.31L500.87 135.58C501.75 135.41 505.52 132.16 505.82 132.16H512.31L512.3 132.17ZM526.53 136.78C522.07 134.79 515.54 131.54 511.47 135.73C514.14 137.19 517.19 136.54 520.04 136.78C521.74 136.92 523.82 137.52 525.49 137.61C526.36 137.66 526.69 137.85 526.53 136.78ZM539.92 146.39C540.04 145.5 539.21 145.03 538.63 144.55C535.57 142 529.28 138.18 525.25 139.48C524.23 139.81 523.44 140.68 524.43 141.6C525.26 142.37 532.5 143.58 534.39 144.19C535.25 144.47 539.67 146.63 539.92 146.4V146.39Z" fill="#FF5B00"/>
<path d="M75.76 82.4C78.68 84.71 82.5 85.7 84.55 89.08C79.91 87.68 75.36 85.81 70.47 85.37C70 85.33 68.97 84.98 69.06 85.73C75.02 87.46 80.97 89.85 86.21 93.08L85.37 95.77C76.15 91.16 66.28 88.19 55.86 89.5C55.1 89.6 55.17 89.34 55.24 90.33C62.81 90.73 70.6 92.83 77.51 95.89C78.85 96.49 84.3 99.16 85.07 99.93C85.95 100.81 87.39 105.16 88.13 106.61C88.57 107.46 89.97 107.79 88.56 108.36C81.68 111.15 70.31 109.03 63.74 105.89C57.17 102.75 53.18 97.86 48.2 93.3C47.31 92.49 42.43 88.8 42.26 88.45C41.94 87.8 42.55 87.88 42.79 87.74C51.06 82.87 65.32 75.74 75 77.06C78.37 77.52 82.54 79.84 85.14 81.98C87.01 83.51 89.52 85.38 86.82 87.37C83.6 84.9 79.91 82.63 75.73 82.39L75.76 82.4Z" fill="#FF5B00"/>
<path d="M61.94 161.04L52.73 167.09C43.46 175.03 39.65 186.04 43.95 197.84C44.68 197.94 44.34 196.89 44.36 196.38C44.65 188.98 44.15 182.95 48.2 176.37C49.12 174.88 55.84 166.74 57.29 167.75C60.17 172.83 61.93 180.56 58.35 185.68C53.82 192.16 48.09 191.83 47.67 202.23C47.61 203.75 48.86 205.2 47.29 205.57L48.97 209.13C21.7 206.52 18.81 165.91 47.71 163.96C46.42 165.57 44.28 165.82 42.68 167.08C41.69 167.86 38.84 171.44 38.51 172.53C37.95 174.36 40.67 171.5 41.01 171.9C39.92 176.6 38.71 181.44 39.34 186.34C39.41 186.91 39.63 187.63 40.18 186.96C41.45 177.59 44.77 168.8 53.3 163.88C54.68 163.08 58.49 161.12 59.86 160.78C60.73 160.56 61.16 160.82 61.95 161.03L61.94 161.04Z" fill="#FF5B00"/>
<path d="M219.32 147.02C218.94 143.6 216.9 139.58 215.75 136.35C223.64 128.82 236.3 126.21 246.52 130.3C247.95 135.39 248.75 140.25 253.22 143.68C250.03 144.81 246.44 145.32 243.79 147.64C239.37 151.51 238.26 159.12 233.33 163.12C228.28 167.22 220.81 167.61 214.72 166.05C219.88 155.97 227.73 148.95 238.59 145.37L245.27 143.47H237.95C233.03 143.47 224.05 149.4 220.57 152.85C220.17 153.25 220.06 153.67 219.33 153.51C219.16 151.43 219.56 149.06 219.33 147.03L219.32 147.02ZM227.51 139.95C228.33 138.94 229.2 138.14 229.99 137.2C230.27 136.87 231.09 136.36 230.41 135.94C226.38 138.17 218.03 142.51 220.79 148.07C221.73 148.27 226.48 141.23 227.51 139.95Z" fill="#FF5B00"/>
<path d="M328.14 53.33C328.6 57.38 331.15 62 331.5 66.28C332.2 74.86 327.23 80.12 318.93 81.14C319.51 77.94 320.32 75.49 320.18 72.14C320.16 71.63 320.5 70.59 319.77 70.69C317.05 83.96 307.65 96.02 294.66 100.39C294.56 101.14 295.59 100.79 296.02 100.71C298.19 100.3 300.39 99.02 302.61 98.72C301.17 100.07 298.93 103.22 297.39 104.17C293.51 106.55 283.74 107.22 279.27 109.93L273.73 108.75C273.77 108.15 274.38 108.11 274.76 107.91C284.18 103 294.1 100.32 302.99 93.87C314.91 85.22 318.95 72.61 318.93 58.15L310.54 81.13C309.27 82.01 305.63 77.54 305.03 76.43C298.6 64.47 316.29 50.89 325.42 46.02C326.11 45.65 327.26 44.91 327.92 44.75C329.17 44.46 328.13 45.34 328.13 45.38C328.13 47.84 327.87 50.99 328.13 53.33H328.14Z" fill="#FF5B00"/>
<path d="M105.62 165.91C99.29 158.76 100.43 144.8 109.98 141.49C111.08 141.11 120.31 138.96 121.17 138.95C125.54 138.9 130.81 142.65 133.03 146.26C143.68 163.58 118.6 180.55 105.63 165.91H105.62ZM108.4 156.86C105.91 157.46 105.85 161.9 106.78 163.7C107.62 165.33 112.72 168.38 114.52 168.54C117.4 168.81 118.86 166.96 120.94 166.24C122.7 165.63 124.56 165.77 126.56 164.74C132.08 161.9 134.4 154.04 131.52 148.58C131.22 148.02 131.16 147.55 130.78 148.47C130.61 148.89 131.11 152.48 131 153.7C130.71 156.82 129.18 159.66 127.03 161.86L128.53 156.21C128.63 155.93 128.12 151.5 127.24 152.66C127.17 155.68 126.03 158.78 124.31 161.24L124.2 158L123.06 155.59C123.82 160.35 120.27 165.34 115.63 166.37C115.21 166.46 114.57 166.73 114.68 166.05C117.11 165.32 118.54 162.21 118.78 159.86C118.86 159.05 118.95 158.35 118.03 158.1C117.14 167.56 104.51 166.67 108.4 156.85V156.86Z" fill="#FF5B00"/>
<path d="M86.01 209.55C65.61 207.26 56.26 177.8 72.21 165.64C75.54 163.1 76.47 164.3 80.15 163.95C81.86 163.79 83.91 163.13 85.59 163.1C86.1 163.1 86.47 163.1 86.22 163.74C85.81 164.77 84.25 166.5 83.64 167.85C76.83 182.74 84.43 197.55 93.34 209.55C90.99 209.36 88.31 209.81 86.02 209.55H86.01ZM81.02 168.39C81.74 167.5 82.36 166.53 83.08 165.63C83.56 164.25 80.48 165.31 79.78 165.69C77.08 167.18 75.09 171.83 74.92 174.84C77.01 172.96 79.26 170.56 81.02 168.39ZM73.24 188.64C73.39 187.14 73.99 185.71 74.62 184.37C75.56 182.37 78.98 177.84 79.35 176.54C79.55 175.82 79.55 175.67 78.83 175.31C73.47 175.07 72.65 183.18 72.82 187.19C72.84 187.7 72.5 188.74 73.23 188.65L73.24 188.64Z" fill="#FF5B00"/>
<path d="M513.56 175.25C498.25 173.21 486.04 182.5 474.06 168.56C473.81 168.26 473.64 168.35 473.8 167.73C478.87 166.62 483.36 162.66 485.92 158.28L491.8 160.19L486.9 156.23C488.29 153.23 488.96 149.9 488.87 146.6C488.85 145.85 487.81 144.1 489.08 144.29C489.99 144.43 492.65 145.92 493.6 146.47C498.82 149.5 502.52 153.68 505.41 158.93L513.56 175.25Z" fill="#FF5B00"/>
<path d="M140.21 110.42C139.2 110.58 138.96 109.59 138.59 108.9C135.21 102.68 132.39 92.31 130.78 85.34C130.07 82.28 129.39 74.58 128.29 72.35C128.2 72.17 127.77 71.83 127.66 71.94C126.46 76.79 128.12 81.69 128.07 86.58L124.48 80.35C122.99 78.82 121.76 76.84 120.35 75.28C119.66 74.52 118.05 74.08 118.04 73.01C119.45 69.32 122.15 66.31 123.55 62.62C124.3 60.64 124.43 59.21 124.93 57.3C125.03 56.91 125.04 56.36 125.56 56.48C125.58 56.96 125.86 57.4 126.18 57.75C134.46 67 146.36 74.53 149.02 87.62C147.4 89.76 145.32 91.52 143.9 93.83C142.81 95.6 140.21 101.65 140.21 103.53V110.43V110.42Z" fill="#FF5B00"/>
<path d="M357.85 89.09C354.77 86.18 351.28 84.62 346.95 85.51C344.98 85.91 342.09 87.73 342.58 89.92C353.01 80.8 365.72 97.9 357.23 107.07C353.76 110.82 349.22 111.01 344.88 108.74C344.59 110.36 346.06 110.59 346.96 111.46C346.27 112.35 344.96 112.95 343.82 112.94C342.27 112.93 341.63 111.2 340.7 112.3C342.09 114.72 344.41 115.19 346.84 113.85C347.64 113.41 348.31 112.36 348.93 112.18C350.15 111.81 351.93 112.25 353.24 112.1C350.74 118.92 337.81 118.77 333.75 113.8C332.61 112.41 333.92 108.83 334.01 106.88C334.25 101.33 334.32 95.56 332.31 90.34L331.06 90.76C332.42 87.63 335.66 85.46 339.01 84.91C338.91 85.56 338.11 85.51 337.56 86.18C335.96 88.13 334.69 91.25 335.67 93.69C337.09 92.04 337.04 89.78 338.6 88.05C342.2 84.04 348.98 83.26 353.78 85.42C354.49 85.74 358.55 88.32 357.84 89.09H357.85ZM355.2 90.91C352.44 88.35 346.18 87.82 345.3 92.44C345.71 92.83 348.77 90.89 349.73 90.78C352.56 90.45 355.19 92.57 356.41 94.93C356.87 95.82 356.75 97.08 357.42 97.46C358.39 95.43 356.68 92.3 355.19 90.92L355.2 90.91Z" fill="#FF5B00"/>
<path d="M385.25 91.43C386.37 92.62 389.45 95.76 389.9 97.06C390 97.35 390.19 97.56 389.91 97.87C385.25 102.07 380.41 106.52 374.49 108.69C370.73 106.05 366.76 104.53 362.22 103.76L362.89 97.04C363.64 96.17 372.32 102.11 373.57 102.47C374.11 102.63 374.41 102.37 374.19 101.85C373.67 100.64 368.02 96.14 366.62 95.19C365.56 94.47 363.11 93.7 362.48 93.05C361.77 92.32 361.01 89.5 360.14 88.28C357.59 84.69 353.19 82.45 348.85 81.98H344.89C359.8 74.62 374.49 80 385.25 91.43Z" fill="#FF5B00"/>
<path d="M464.57 126.34L464.54 127.52C456.59 130.31 450.26 135.08 447.83 143.45C444.26 142.39 440.74 140.97 437.08 140.21C435.99 139.98 433.7 140.69 434.04 139.28C442.92 137.26 451.9 133.2 459.99 129.02C460.47 128.77 461.15 128.63 461.25 127.98L442.21 134.25C440.83 134.54 442.92 132.78 442.99 132.73C444.51 131.54 446.56 130.6 447.86 129.01C447.93 128.69 447.46 128.74 447.24 128.81C442.92 130.16 437.49 134.69 433.17 136.5C431.92 137.02 430.51 137.13 429.24 137.6C428.5 137.08 429.4 136.71 429.73 136.41C431.66 134.67 435.18 132.38 436.56 130.27C436.92 129.72 436.85 129.21 436.35 129.23C435.72 129.26 427.76 135.52 426.06 136.51C424.54 137.4 422.3 139 420.65 138.64L430.27 129.02C430.34 128.7 429.87 128.75 429.65 128.82C428.39 129.2 424.38 132.41 423.06 133.43C421.5 134.64 417.35 138.87 416.03 139.47C415.6 139.67 412.02 140.24 411.86 140.11L416.67 133.41C423.15 125.26 437.31 116.85 447.87 119.39C453.43 120.73 458.59 125.59 464.58 126.33L464.57 126.34Z" fill="#FF5B00"/>
<path d="M131.84 281.92L127.65 297.39L125.57 296.14C124.37 297.95 126.57 299.35 126.73 300.16C126.86 300.8 125.91 304.73 124.61 304.03L122.22 302.41C122.19 303.26 122.15 304.11 122.4 304.94C122.87 306.47 124.34 306.08 124.3 307.42C121.45 309.51 119.77 306.35 116.77 306.6C117.42 307.92 118.01 309.67 119.7 309.95L119.44 310.81C117.11 312.94 113.3 310.98 110.5 310.78C110.29 310.98 111.11 312.63 111.33 312.98C111.69 313.54 113.08 313.58 112.18 314.34C110.19 316.01 105.27 314.4 102.97 313.71L104.64 316.43C104.78 317.3 104.51 316.93 104.06 317.1C102.23 317.81 96.06 316.02 93.76 315.8C93.72 317.31 95.64 317.73 96.27 318.72C92.85 319.3 89.38 318.39 86.23 317.05L87.48 319.97C78.03 320.62 68.86 316.38 59.44 317.88L62.51 316.56C69.79 314.62 76.92 317.4 84.23 316.09C96.59 313.89 108.32 307.09 116.35 297.58C121 292.07 124.57 284.36 131.85 281.91L131.84 281.92Z" fill="#FF5B00"/>
<path d="M536.58 165.21C534.44 164.49 532.62 163.39 530.39 162.83C526.12 161.75 521.57 162.11 517.33 160.82C509.27 158.37 504.69 150.02 503.1 142.21C518.02 142.76 531.63 150.67 536.58 165.21Z" fill="#FF5B00"/>
<path d="M89.15 198.26L85.51 189.15C83.14 179.85 84.96 168.89 92.29 162.27C95.34 164.99 98.15 169.53 99.07 173.5C101.94 185.81 90.15 187.42 89.14 198.26H89.15Z" fill="#FF5B00"/>
<path d="M448.26 157.69C438.22 153.51 427.54 151.87 416.75 150.91L407.24 146.82C416.69 145.09 426.2 143.2 435.9 143.89C437.58 144.01 446.52 145.41 446.94 146.66C446.87 150.52 447 154.01 448.25 157.68L448.26 157.69Z" fill="#FF5B00"/>
<path d="M451.38 163.38C452.41 164.58 453.82 165.32 455.23 166L460.4 167.73C451.23 168.12 442.39 170.35 433.3 167.42C429.39 166.16 429.98 164.23 427.93 161.08C427.15 159.89 425.8 158.09 424.85 157.05C424.36 156.52 421.75 155.06 422.32 154.35L448.4 159.03C449.04 159.27 450.61 162.49 451.38 163.38Z" fill="#FF5B00"/>
<path d="M202.09 171.55L202.52 173.52C198.43 175.56 194.24 178.45 191 181.68C187.93 184.74 185.91 188.54 183.32 191.99C183.88 189.12 182.65 185.24 182.92 182.62C183.36 178.31 187.76 172.58 187.5 167.73C187.79 167.43 190.48 169.47 191.11 169.77C194.89 171.55 197.95 171.68 202.09 171.56V171.55Z" fill="#FF5B00"/>
<path d="M285.87 148.49H305.33C306.24 148.93 306.31 151.97 305.3 152.21C302.66 151.66 299.67 151.75 296.94 151.82C295.46 151.86 293.32 152.62 291.91 152.48C290.98 152.39 286.79 149.38 285.86 148.49H285.87Z" fill="#FF5B00"/>
<path d="M201.9 121.03C203.22 119 206.54 113.1 207.83 111.7C208.76 110.69 211.11 110.27 212.2 109.17C212.73 109.85 205.82 124.42 205.1 124.89C204.57 125.23 200.31 123.48 201.91 121.03H201.9Z" fill="#FF5B00"/>
<path d="M71.15 163.55L66.37 168.6L62.79 174.84C62.39 171.49 60.79 168.65 59.44 165.65C63.68 163.86 66.32 161.69 71.16 163.56L71.15 163.55Z" fill="#FF5B00"/>
<path d="M410.17 143.47L401.96 146.77C398.55 146.01 394.55 148.08 391.54 148.07C389.82 148.07 387.7 146.83 385.89 146.81C386.68 146.2 389.63 144.06 390.34 143.99C391.38 143.88 394.07 145.25 396.14 145.17C400.51 145 405.35 142.41 410.16 143.47H410.17Z" fill="#FF5B00"/>
<path d="M499.7 141.84L500.99 147.23C498.56 145.39 496.01 143.53 493.04 142.62C493.23 142 495.2 141.84 495.76 141.79C497.05 141.69 498.4 141.79 499.69 141.83L499.7 141.84Z" fill="#FF5B00"/>
<path d="M337.35 117.96L329.4 119.21C330.54 113.97 334.08 116.57 337.35 117.96Z" fill="#FF5B00"/>
<path d="M477.98 154.36C477.69 155.89 476.72 156.86 475.05 156.85V153.51L477.98 154.36Z" fill="#FF5B00"/>
<path d="M57.76 159.78L54.18 161.43L50.23 160.61L57.76 159.78Z" fill="#FF5B00"/>
<path d="M47.29 143.47C47.56 143.7 46.63 145.75 45.85 145.55L43.52 143.06L47.28 143.48L47.29 143.47Z" fill="#FF5B00"/>
<path d="M128.07 110L125.14 108.32L126.4 106.24C126.87 105.91 128.26 109.44 128.06 110H128.07Z" fill="#FF5B00"/>
<path d="M155.28 95.78C155.17 97.76 154.42 100.37 154.41 102.26C154.41 103.42 155.7 110.34 154.24 110.4C149.02 107.94 152.09 98.88 155.28 95.77V95.78Z" fill="#FF5B00"/>
<path d="M150.67 108.33L152.76 120.88C148.11 119.56 148.71 112.65 149.82 108.95C150 108.34 149.58 108.22 150.67 108.34V108.33Z" fill="#FF5B00"/>
<path d="M84.42 135.23C85.1 135.96 85.95 138.01 84.36 138.03L72.83 133.02C75.28 131.94 82.71 133.4 84.42 135.23Z" fill="#FF5B00"/>
<path d="M67.81 137.19C67.67 136.3 67.78 136.52 68.34 136.26C70.36 135.34 73.16 135.19 75.07 136.42C76.38 137.27 76.75 138.42 74.84 138.36C72.93 138.3 69.89 137.26 67.81 137.19Z" fill="#FF5B00"/>
<path d="M70.31 141.37L61.53 143.46C61.33 142.59 62.63 142.03 63.24 141.62C65.09 140.38 69.36 138.63 70.31 141.37Z" fill="#FF5B00"/>
<path d="M80.36 57.3C81.91 57.91 83 59.18 84.54 60.02C86.16 60.91 90.75 61.76 89.37 63.99C88.42 65.53 84.79 63.28 83.73 62.49C82.88 61.85 79.57 58.17 80.35 57.29L80.36 57.3Z" fill="#FF5B00"/>
<path d="M256.11 46.8C255.48 47.24 253.9 46.55 253.7 45.71C253.1 43.21 257.32 37.81 259.71 36.81C260.49 37.42 260.22 37.29 260 37.92C259.48 39.39 258.03 41.15 257.33 42.79C257.02 43.51 256.36 46.63 256.12 46.8H256.11Z" fill="#FF5B00"/>
<path d="M100.44 99.55C104.06 105.45 111.38 105.74 115.09 99.55C115.19 101.66 113.78 103.41 112.58 104.98C113.59 104.96 114.62 105.1 115.62 104.89C116.93 104.61 117.97 102.97 119.27 103.52C117.96 105.97 115.2 106.95 112.58 107.29C114.56 109.21 117.14 109.18 119.69 109.38C117.97 111.08 114.63 110.56 112.5 109.88C111.91 109.69 111.04 108.82 110.69 108.84C110.4 108.86 107.07 111.95 105.46 111.26C106.54 109.6 110.06 109.64 108.85 106.91C105.89 106.68 101.74 105.81 100.08 103.04C99.41 101.91 98.43 99.53 100.43 99.55H100.44Z" fill="#FF5B00"/>
<path d="M511.05 112.52C509.33 115.52 505.52 119.12 501.84 118.37L502.09 117.08C503.8 117.25 510.24 111.88 511.05 112.52Z" fill="#FF5B00"/>
<path d="M26.37 161.87C26.27 165.38 18.93 163.63 18.84 162.08C18.78 161.05 19.83 161.87 19.88 161.87H26.37Z" fill="#FF5B00"/>
<path d="M290.05 75.71C290.19 78.44 282.25 82.82 281.03 80.3C280.06 78.29 283.67 78.34 284.6 78C285.42 77.69 289.79 75.47 290.05 75.71Z" fill="#FF5B00"/>
<path d="M280.85 140.12C283.58 137.5 285.97 134.1 285.45 130.09C284.63 130.31 284.8 131.65 284.02 132.21C280.41 134.79 283.34 128.7 283.37 127.35C283.46 123.33 280.03 116.25 275.4 116.28C275.51 114.32 277.99 115.12 279.19 115.64C282.45 117.05 287.5 124.78 287.91 128.25C288.46 132.91 286.39 140.04 280.84 140.12H280.85Z" fill="#FF5B00"/>
<path d="M539.92 146.39C539.67 146.62 535.25 144.46 534.39 144.18C532.5 143.57 525.26 142.36 524.43 141.59C523.44 140.67 524.24 139.8 525.25 139.47C529.28 138.18 535.57 141.99 538.63 144.54C539.21 145.02 540.04 145.5 539.92 146.38V146.39Z" fill="#FF5B00"/>
<path d="M526.53 136.78C526.7 137.85 526.36 137.66 525.49 137.61C523.82 137.52 521.74 136.92 520.04 136.78C517.19 136.55 514.13 137.19 511.47 135.73C515.54 131.54 522.07 134.79 526.53 136.78Z" fill="#FF5B00"/>
<path d="M227.51 139.95C226.47 141.23 221.72 148.27 220.79 148.07C218.03 142.51 226.38 138.18 230.41 135.94C231.09 136.36 230.27 136.87 229.99 137.2C229.2 138.14 228.33 138.94 227.51 139.95Z" fill="#FF5B00"/>
<path d="M108.4 156.86C104.51 166.68 117.14 167.57 118.03 158.11C118.95 158.37 118.86 159.07 118.78 159.87C118.54 162.22 117.11 165.33 114.68 166.06C114.56 166.74 115.21 166.47 115.63 166.38C120.26 165.34 123.81 160.36 123.06 155.6L124.2 158.01L124.31 161.25C126.02 158.79 127.17 155.69 127.24 152.67C128.12 151.51 128.62 155.94 128.53 156.22L127.03 161.87C129.19 159.67 130.72 156.83 131 153.71C131.11 152.49 130.61 148.9 130.78 148.48C131.15 147.56 131.22 148.03 131.52 148.59C134.4 154.04 132.08 161.91 126.56 164.75C124.56 165.78 122.7 165.64 120.94 166.25C118.86 166.97 117.4 168.81 114.52 168.55C112.72 168.38 107.62 165.34 106.78 163.71C105.85 161.9 105.91 157.46 108.4 156.87V156.86Z" fill="#FF5B00"/>
<path d="M73.24 188.64C72.51 188.74 72.85 187.69 72.83 187.18C72.66 183.18 73.48 175.06 78.84 175.3C79.56 175.66 79.56 175.81 79.36 176.53C78.99 177.83 75.58 182.36 74.63 184.36C74 185.7 73.4 187.13 73.25 188.63L73.24 188.64Z" fill="#FF5B00"/>
<path d="M81.02 168.39C79.26 170.56 77.02 172.96 74.92 174.84C75.1 171.83 77.08 167.19 79.78 165.69C80.47 165.31 83.56 164.25 83.08 165.63C82.36 166.53 81.74 167.5 81.02 168.39Z" fill="#FF5B00"/>
<path d="M355.2 90.91C356.7 92.3 358.4 95.43 357.43 97.45C356.76 97.07 356.88 95.81 356.42 94.92C355.19 92.56 352.56 90.45 349.74 90.77C348.78 90.88 345.72 92.82 345.31 92.43C346.18 87.81 352.45 88.34 355.21 90.9L355.2 90.91Z" fill="#FF5B00"/>
</g>
<defs>
<clipPath id="clip0_87_87">
<rect width="553.09" height="336" fill="white"/>
</clipPath>
</defs>
</svg>
